solid OpenSCAD_Model
  facet normal 0.156433 0 0.987689
    outer loop
      vertex 5 14 1.17
      vertex 5.36155 1 1.11274
      vertex 5.36155 14 1.11274
    endloop
  endfacet
  facet normal 0.156433 0 0.987689
    outer loop
      vertex 5.36155 1 1.11274
      vertex 5 14 1.17
      vertex 5 1 1.17
    endloop
  endfacet
  facet normal 0.453991 0 0.891006
    outer loop
      vertex 5.36155 14 1.11274
      vertex 5.68771 1 0.946549
      vertex 5.68771 14 0.946549
    endloop
  endfacet
  facet normal 0.453991 0 0.891006
    outer loop
      vertex 5.68771 1 0.946549
      vertex 5.36155 14 1.11274
      vertex 5.36155 1 1.11274
    endloop
  endfacet
  facet normal 0 1 0
    outer loop
      vertex 5.36155 14 1.11274
      vertex 4.63845 14 1.11274
      vertex 5 14 1.17
    endloop
  endfacet
  facet normal 0 1 0
    outer loop
      vertex 5.68771 14 0.946549
      vertex 4.63845 14 1.11274
      vertex 5.36155 14 1.11274
    endloop
  endfacet
  facet normal 0 1 0
    outer loop
      vertex 5.68771 14 0.946549
      vertex 4.31229 14 0.946549
      vertex 4.63845 14 1.11274
    endloop
  endfacet
  facet normal 0 1 0
    outer loop
      vertex 5.94655 14 0.687708
      vertex 4.31229 14 0.946549
      vertex 5.68771 14 0.946549
    endloop
  endfacet
  facet normal 0 1 0
    outer loop
      vertex 5.94655 14 0.687708
      vertex 4.05345 14 0.687708
      vertex 4.31229 14 0.946549
    endloop
  endfacet
  facet normal 0 1 0
    outer loop
      vertex 6.11274 14 0.361549
      vertex 4.05345 14 0.687708
      vertex 5.94655 14 0.687708
    endloop
  endfacet
  facet normal 0 1 0
    outer loop
      vertex 6.11274 14 0.361549
      vertex 3.88726 14 0.361549
      vertex 4.05345 14 0.687708
    endloop
  endfacet
  facet normal 0 1 0
    outer loop
      vertex 6.17 14 0
      vertex 3.88726 14 0.361549
      vertex 6.11274 14 0.361549
    endloop
  endfacet
  facet normal 0 1 0
    outer loop
      vertex 3.88726 14 0.361549
      vertex 6.17 14 0
      vertex 3.83 14 0
    endloop
  endfacet
  facet normal 0 -1 0
    outer loop
      vertex 3.45492 0 4.75528
      vertex 6.54508 0 4.75528
      vertex 5 0 5
    endloop
  endfacet
  facet normal 0 -1 0
    outer loop
      vertex 2.06107 0 4.04508
      vertex 6.54508 0 4.75528
      vertex 3.45492 0 4.75528
    endloop
  endfacet
  facet normal 0 -1 0
    outer loop
      vertex 2.06107 0 4.04508
      vertex 7.93893 0 4.04508
      vertex 6.54508 0 4.75528
    endloop
  endfacet
  facet normal 0 -1 0
    outer loop
      vertex 0.954915 0 2.93893
      vertex 7.93893 0 4.04508
      vertex 2.06107 0 4.04508
    endloop
  endfacet
  facet normal 0 -1 0
    outer loop
      vertex 0.954915 0 2.93893
      vertex 9.04508 0 2.93893
      vertex 7.93893 0 4.04508
    endloop
  endfacet
  facet normal 0 -1 0
    outer loop
      vertex 0.244718 0 1.54508
      vertex 9.04508 0 2.93893
      vertex 0.954915 0 2.93893
    endloop
  endfacet
  facet normal 0 -1 0
    outer loop
      vertex 0.244718 0 1.54508
      vertex 9.75528 0 1.54508
      vertex 9.04508 0 2.93893
    endloop
  endfacet
  facet normal 0 -1 0
    outer loop
      vertex 0 0 0
      vertex 9.75528 0 1.54508
      vertex 0.244718 0 1.54508
    endloop
  endfacet
  facet normal 0 -1 -0
    outer loop
      vertex 9.75528 0 1.54508
      vertex 0 0 0
      vertex 10 0 0
    endloop
  endfacet
  facet normal 0.987689 0 0.156433
    outer loop
      vertex 6.11274 14 0.361549
      vertex 6.17 1 0
      vertex 6.17 14 0
    endloop
  endfacet
  facet normal 0.987689 0 0.156433
    outer loop
      vertex 6.17 1 0
      vertex 6.11274 14 0.361549
      vertex 6.11274 1 0.361549
    endloop
  endfacet
  facet normal -0.987689 0 0.156433
    outer loop
      vertex 3.83 1 0
      vertex 3.88726 14 0.361549
      vertex 3.83 14 0
    endloop
  endfacet
  facet normal -0.987689 0 0.156433
    outer loop
      vertex 3.88726 14 0.361549
      vertex 3.83 1 0
      vertex 3.88726 1 0.361549
    endloop
  endfacet
  facet normal 0.707107 0 0.707107
    outer loop
      vertex 5.68771 14 0.946549
      vertex 5.94655 1 0.687708
      vertex 5.94655 14 0.687708
    endloop
  endfacet
  facet normal 0.707107 0 0.707107
    outer loop
      vertex 5.94655 1 0.687708
      vertex 5.68771 14 0.946549
      vertex 5.68771 1 0.946549
    endloop
  endfacet
  facet normal -0.891006 0 0.453991
    outer loop
      vertex 3.88726 1 0.361549
      vertex 4.05345 14 0.687708
      vertex 3.88726 14 0.361549
    endloop
  endfacet
  facet normal -0.891006 0 0.453991
    outer loop
      vertex 4.05345 14 0.687708
      vertex 3.88726 1 0.361549
      vertex 4.05345 1 0.687708
    endloop
  endfacet
  facet normal 0.891006 0 0.453991
    outer loop
      vertex 5.94655 14 0.687708
      vertex 6.11274 1 0.361549
      vertex 6.11274 14 0.361549
    endloop
  endfacet
  facet normal 0.891006 0 0.453991
    outer loop
      vertex 6.11274 1 0.361549
      vertex 5.94655 14 0.687708
      vertex 5.94655 1 0.687708
    endloop
  endfacet
  facet normal -0.156433 0 0.987689
    outer loop
      vertex 4.63845 14 1.11274
      vertex 5 1 1.17
      vertex 5 14 1.17
    endloop
  endfacet
  facet normal -0.156433 0 0.987689
    outer loop
      vertex 5 1 1.17
      vertex 4.63845 14 1.11274
      vertex 4.63845 1 1.11274
    endloop
  endfacet
  facet normal -0.707107 0 0.707107
    outer loop
      vertex 4.05345 1 0.687708
      vertex 4.31229 14 0.946549
      vertex 4.05345 14 0.687708
    endloop
  endfacet
  facet normal -0.707107 0 0.707107
    outer loop
      vertex 4.31229 14 0.946549
      vertex 4.05345 1 0.687708
      vertex 4.31229 1 0.946549
    endloop
  endfacet
  facet normal -0.453991 0 0.891006
    outer loop
      vertex 4.31229 14 0.946549
      vertex 4.63845 1 1.11274
      vertex 4.63845 14 1.11274
    endloop
  endfacet
  facet normal -0.453991 0 0.891006
    outer loop
      vertex 4.63845 1 1.11274
      vertex 4.31229 14 0.946549
      vertex 4.31229 1 0.946549
    endloop
  endfacet
  facet normal 2.95782e-008 1 1.86751e-007
    outer loop
      vertex 5 0.999999 5
      vertex 5.36155 1 1.11274
      vertex 5 1 1.17
    endloop
  endfacet
  facet normal -9.34221e-008 1 1.75311e-007
    outer loop
      vertex 5 0.999999 5
      vertex 5.68771 1 0.946549
      vertex 5.36155 1 1.11274
    endloop
  endfacet
  facet normal -4.7106e-008 1 1.83169e-007
    outer loop
      vertex 5 0.999999 5
      vertex 5.94655 1 0.687708
      vertex 5.68771 1 0.946549
    endloop
  endfacet
  facet normal 3.55362e-009 1 1.94288e-007
    outer loop
      vertex 10 1 0
      vertex 5.94655 1 0.687708
      vertex 5 0.999999 5
    endloop
  endfacet
  facet normal 1.74656e-009 1 1.83637e-007
    outer loop
      vertex 5.94655 1 0.687708
      vertex 10 1 0
      vertex 6.11274 1 0.361549
    endloop
  endfacet
  facet normal 0 1 1.64859e-007
    outer loop
      vertex 6.11274 1 0.361549
      vertex 10 1 0
      vertex 6.17 1 0
    endloop
  endfacet
  facet normal -2.95782e-008 1 1.86751e-007
    outer loop
      vertex 4.63845 1 1.11274
      vertex 5 0.999999 5
      vertex 5 1 1.17
    endloop
  endfacet
  facet normal 9.34221e-008 1 1.75311e-007
    outer loop
      vertex 4.31229 1 0.946549
      vertex 5 0.999999 5
      vertex 4.63845 1 1.11274
    endloop
  endfacet
  facet normal 4.7106e-008 1 1.83169e-007
    outer loop
      vertex 4.05345 1 0.687708
      vertex 5 0.999999 5
      vertex 4.31229 1 0.946549
    endloop
  endfacet
  facet normal -1.74656e-009 1 1.83637e-007
    outer loop
      vertex 0 1 0
      vertex 4.05345 1 0.687708
      vertex 3.88726 1 0.361549
    endloop
  endfacet
  facet normal -3.55362e-009 1 1.94288e-007
    outer loop
      vertex 4.05345 1 0.687708
      vertex 0 1 0
      vertex 5 0.999999 5
    endloop
  endfacet
  facet normal -0 1 1.64859e-007
    outer loop
      vertex 0 1 0
      vertex 3.88726 1 0.361549
      vertex 3.83 1 0
    endloop
  endfacet
  facet normal 0.707107 -0 0.707107
    outer loop
      vertex 7.93893 0 4.04508
      vertex 9.04508 0.999999 2.93893
      vertex 7.93893 0.999999 4.04508
    endloop
  endfacet
  facet normal 0.707107 0 0.707107
    outer loop
      vertex 9.04508 0.999999 2.93893
      vertex 7.93893 0 4.04508
      vertex 9.04508 0 2.93893
    endloop
  endfacet
  facet normal -0.156435 0 0.987688
    outer loop
      vertex 3.45492 0.999999 4.75528
      vertex 5 0 5
      vertex 5 0.999999 5
    endloop
  endfacet
  facet normal -0.156435 0 0.987688
    outer loop
      vertex 5 0 5
      vertex 3.45492 0.999999 4.75528
      vertex 3.45492 0 4.75528
    endloop
  endfacet
  facet normal -0.707107 0 0.707107
    outer loop
      vertex 0.954915 0 2.93893
      vertex 2.06107 0.999999 4.04508
      vertex 0.954915 0.999999 2.93893
    endloop
  endfacet
  facet normal -0.707107 0 0.707107
    outer loop
      vertex 2.06107 0.999999 4.04508
      vertex 0.954915 0 2.93893
      vertex 2.06107 0 4.04508
    endloop
  endfacet
  facet normal -0.987688 0 0.156435
    outer loop
      vertex 0 0 0
      vertex 0.244718 0.999999 1.54508
      vertex 0 1 0
    endloop
  endfacet
  facet normal -0.987688 0 0.156435
    outer loop
      vertex 0.244718 0.999999 1.54508
      vertex 0 0 0
      vertex 0.244718 0 1.54508
    endloop
  endfacet
  facet normal 0.987688 -0 0.156435
    outer loop
      vertex 9.75528 0 1.54508
      vertex 10 1 0
      vertex 9.75528 0.999999 1.54508
    endloop
  endfacet
  facet normal 0.987688 0 0.156435
    outer loop
      vertex 10 1 0
      vertex 9.75528 0 1.54508
      vertex 10 0 0
    endloop
  endfacet
  facet normal 1.62249e-007 1 3.18431e-007
    outer loop
      vertex 10 1 0
      vertex 6.54508 0.999999 4.75528
      vertex 7.93893 0.999999 4.04508
    endloop
  endfacet
  facet normal 3.58946e-008 1 2.26629e-007
    outer loop
      vertex 10 1 0
      vertex 5 0.999999 5
      vertex 6.54508 0.999999 4.75528
    endloop
  endfacet
  facet normal 0.156435 0 0.987688
    outer loop
      vertex 5 0.999999 5
      vertex 6.54508 0 4.75528
      vertex 6.54508 0.999999 4.75528
    endloop
  endfacet
  facet normal 0.156435 0 0.987688
    outer loop
      vertex 6.54508 0 4.75528
      vertex 5 0.999999 5
      vertex 5 0 5
    endloop
  endfacet
  facet normal -0.453991 0 0.891006
    outer loop
      vertex 2.06107 0.999999 4.04508
      vertex 3.45492 0 4.75528
      vertex 3.45492 0.999999 4.75528
    endloop
  endfacet
  facet normal -0.453991 0 0.891006
    outer loop
      vertex 3.45492 0 4.75528
      vertex 2.06107 0.999999 4.04508
      vertex 2.06107 0 4.04508
    endloop
  endfacet
  facet normal 0.891006 -0 0.453991
    outer loop
      vertex 9.04508 0 2.93893
      vertex 9.75528 0.999999 1.54508
      vertex 9.04508 0.999999 2.93893
    endloop
  endfacet
  facet normal 0.891006 0 0.453991
    outer loop
      vertex 9.75528 0.999999 1.54508
      vertex 9.04508 0 2.93893
      vertex 9.75528 0 1.54508
    endloop
  endfacet
  facet normal 0.453991 0 0.891006
    outer loop
      vertex 6.54508 0.999999 4.75528
      vertex 7.93893 0 4.04508
      vertex 7.93893 0.999999 4.04508
    endloop
  endfacet
  facet normal 0.453991 0 0.891006
    outer loop
      vertex 7.93893 0 4.04508
      vertex 6.54508 0.999999 4.75528
      vertex 6.54508 0 4.75528
    endloop
  endfacet
  facet normal -4.8068e-007 1 4.8068e-007
    outer loop
      vertex 2.06107 0.999999 4.04508
      vertex 0 1 0
      vertex 0.954915 0.999999 2.93893
    endloop
  endfacet
  facet normal -0.891006 0 0.453991
    outer loop
      vertex 0.244718 0 1.54508
      vertex 0.954915 0.999999 2.93893
      vertex 0.244718 0.999999 1.54508
    endloop
  endfacet
  facet normal -0.891006 0 0.453991
    outer loop
      vertex 0.954915 0.999999 2.93893
      vertex 0.244718 0 1.54508
      vertex 0.954915 0 2.93893
    endloop
  endfacet
  facet normal -3.58946e-008 1 2.26629e-007
    outer loop
      vertex 5 0.999999 5
      vertex 0 1 0
      vertex 3.45492 0.999999 4.75528
    endloop
  endfacet
  facet normal -1.62249e-007 1 3.18431e-007
    outer loop
      vertex 3.45492 0.999999 4.75528
      vertex 0 1 0
      vertex 2.06107 0.999999 4.04508
    endloop
  endfacet
  facet normal 1.75779e-006 1 8.95637e-007
    outer loop
      vertex 10 1 0
      vertex 9.04508 0.999999 2.93893
      vertex 9.75528 0.999999 1.54508
    endloop
  endfacet
  facet normal 4.8068e-007 1 4.8068e-007
    outer loop
      vertex 10 1 0
      vertex 7.93893 0.999999 4.04508
      vertex 9.04508 0.999999 2.93893
    endloop
  endfacet
  facet normal -1.75779e-006 1 8.95637e-007
    outer loop
      vertex 0.954915 0.999999 2.93893
      vertex 0 1 0
      vertex 0.244718 0.999999 1.54508
    endloop
  endfacet
  facet normal 0 0 -1
    outer loop
      vertex 10 0 0
      vertex 6.17 1 0
      vertex 10 1 0
    endloop
  endfacet
  facet normal 0 0 -1
    outer loop
      vertex 6.17 1 0
      vertex 3.83 1 0
      vertex 6.17 14 0
    endloop
  endfacet
  facet normal 0 0 -1
    outer loop
      vertex 10 0 0
      vertex 3.83 1 0
      vertex 6.17 1 0
    endloop
  endfacet
  facet normal 0 0 -1
    outer loop
      vertex 0 0 0
      vertex 3.83 1 0
      vertex 10 0 0
    endloop
  endfacet
  facet normal -0 0 -1
    outer loop
      vertex 3.83 1 0
      vertex 0 0 0
      vertex 0 1 0
    endloop
  endfacet
  facet normal -0 0 -1
    outer loop
      vertex 6.17 14 0
      vertex 3.83 1 0
      vertex 3.83 14 0
    endloop
  endfacet
  facet normal 0.156433 0 0.987689
    outer loop
      vertex 20 14 1.17
      vertex 20.3615 1 1.11274
      vertex 20.3615 14 1.11274
    endloop
  endfacet
  facet normal 0.156433 0 0.987689
    outer loop
      vertex 20.3615 1 1.11274
      vertex 20 14 1.17
      vertex 20 1 1.17
    endloop
  endfacet
  facet normal 0.453991 0 0.891006
    outer loop
      vertex 20.3615 14 1.11274
      vertex 20.6877 1 0.946549
      vertex 20.6877 14 0.946549
    endloop
  endfacet
  facet normal 0.453991 0 0.891006
    outer loop
      vertex 20.6877 1 0.946549
      vertex 20.3615 14 1.11274
      vertex 20.3615 1 1.11274
    endloop
  endfacet
  facet normal 0 1 0
    outer loop
      vertex 20.3615 14 1.11274
      vertex 19.6385 14 1.11274
      vertex 20 14 1.17
    endloop
  endfacet
  facet normal 0 1 0
    outer loop
      vertex 20.6877 14 0.946549
      vertex 19.6385 14 1.11274
      vertex 20.3615 14 1.11274
    endloop
  endfacet
  facet normal 0 1 0
    outer loop
      vertex 20.6877 14 0.946549
      vertex 19.3123 14 0.946549
      vertex 19.6385 14 1.11274
    endloop
  endfacet
  facet normal 0 1 0
    outer loop
      vertex 20.9465 14 0.687708
      vertex 19.3123 14 0.946549
      vertex 20.6877 14 0.946549
    endloop
  endfacet
  facet normal 0 1 0
    outer loop
      vertex 20.9465 14 0.687708
      vertex 19.0535 14 0.687708
      vertex 19.3123 14 0.946549
    endloop
  endfacet
  facet normal 0 1 0
    outer loop
      vertex 21.1127 14 0.361549
      vertex 19.0535 14 0.687708
      vertex 20.9465 14 0.687708
    endloop
  endfacet
  facet normal 0 1 0
    outer loop
      vertex 21.1127 14 0.361549
      vertex 18.8873 14 0.361549
      vertex 19.0535 14 0.687708
    endloop
  endfacet
  facet normal 0 1 0
    outer loop
      vertex 21.17 14 0
      vertex 18.8873 14 0.361549
      vertex 21.1127 14 0.361549
    endloop
  endfacet
  facet normal 0 1 0
    outer loop
      vertex 18.8873 14 0.361549
      vertex 21.17 14 0
      vertex 18.83 14 0
    endloop
  endfacet
  facet normal 0 -1 0
    outer loop
      vertex 18.4549 0 4.75528
      vertex 21.5451 0 4.75528
      vertex 20 0 5
    endloop
  endfacet
  facet normal 0 -1 0
    outer loop
      vertex 17.0611 0 4.04508
      vertex 21.5451 0 4.75528
      vertex 18.4549 0 4.75528
    endloop
  endfacet
  facet normal 0 -1 0
    outer loop
      vertex 17.0611 0 4.04508
      vertex 22.9389 0 4.04508
      vertex 21.5451 0 4.75528
    endloop
  endfacet
  facet normal 0 -1 0
    outer loop
      vertex 15.9549 0 2.93893
      vertex 22.9389 0 4.04508
      vertex 17.0611 0 4.04508
    endloop
  endfacet
  facet normal 0 -1 0
    outer loop
      vertex 15.9549 0 2.93893
      vertex 24.0451 0 2.93893
      vertex 22.9389 0 4.04508
    endloop
  endfacet
  facet normal 0 -1 0
    outer loop
      vertex 15.2447 0 1.54508
      vertex 24.0451 0 2.93893
      vertex 15.9549 0 2.93893
    endloop
  endfacet
  facet normal 0 -1 0
    outer loop
      vertex 15.2447 0 1.54508
      vertex 24.7553 0 1.54508
      vertex 24.0451 0 2.93893
    endloop
  endfacet
  facet normal 0 -1 0
    outer loop
      vertex 15 0 0
      vertex 24.7553 0 1.54508
      vertex 15.2447 0 1.54508
    endloop
  endfacet
  facet normal 0 -1 -0
    outer loop
      vertex 24.7553 0 1.54508
      vertex 15 0 0
      vertex 25 0 0
    endloop
  endfacet
  facet normal 0.987689 0 0.156431
    outer loop
      vertex 21.1127 14 0.361549
      vertex 21.17 1 0
      vertex 21.17 14 0
    endloop
  endfacet
  facet normal 0.987689 0 0.156431
    outer loop
      vertex 21.17 1 0
      vertex 21.1127 14 0.361549
      vertex 21.1127 1 0.361549
    endloop
  endfacet
  facet normal -0.987689 0 0.156431
    outer loop
      vertex 18.83 1 0
      vertex 18.8873 14 0.361549
      vertex 18.83 14 0
    endloop
  endfacet
  facet normal -0.987689 0 0.156431
    outer loop
      vertex 18.8873 14 0.361549
      vertex 18.83 1 0
      vertex 18.8873 1 0.361549
    endloop
  endfacet
  facet normal 0.707108 0 0.707105
    outer loop
      vertex 20.6877 14 0.946549
      vertex 20.9465 1 0.687708
      vertex 20.9465 14 0.687708
    endloop
  endfacet
  facet normal 0.707108 0 0.707105
    outer loop
      vertex 20.9465 1 0.687708
      vertex 20.6877 14 0.946549
      vertex 20.6877 1 0.946549
    endloop
  endfacet
  facet normal -0.891005 0 0.453993
    outer loop
      vertex 18.8873 1 0.361549
      vertex 19.0535 14 0.687708
      vertex 18.8873 14 0.361549
    endloop
  endfacet
  facet normal -0.891005 0 0.453993
    outer loop
      vertex 19.0535 14 0.687708
      vertex 18.8873 1 0.361549
      vertex 19.0535 1 0.687708
    endloop
  endfacet
  facet normal 0.891005 0 0.453993
    outer loop
      vertex 20.9465 14 0.687708
      vertex 21.1127 1 0.361549
      vertex 21.1127 14 0.361549
    endloop
  endfacet
  facet normal 0.891005 0 0.453993
    outer loop
      vertex 21.1127 1 0.361549
      vertex 20.9465 14 0.687708
      vertex 20.9465 1 0.687708
    endloop
  endfacet
  facet normal -0.156433 0 0.987689
    outer loop
      vertex 19.6385 14 1.11274
      vertex 20 1 1.17
      vertex 20 14 1.17
    endloop
  endfacet
  facet normal -0.156433 0 0.987689
    outer loop
      vertex 20 1 1.17
      vertex 19.6385 14 1.11274
      vertex 19.6385 1 1.11274
    endloop
  endfacet
  facet normal -0.707108 0 0.707105
    outer loop
      vertex 19.0535 1 0.687708
      vertex 19.3123 14 0.946549
      vertex 19.0535 14 0.687708
    endloop
  endfacet
  facet normal -0.707108 0 0.707105
    outer loop
      vertex 19.3123 14 0.946549
      vertex 19.0535 1 0.687708
      vertex 19.3123 1 0.946549
    endloop
  endfacet
  facet normal -0.453991 0 0.891006
    outer loop
      vertex 19.3123 14 0.946549
      vertex 19.6385 1 1.11274
      vertex 19.6385 14 1.11274
    endloop
  endfacet
  facet normal -0.453991 0 0.891006
    outer loop
      vertex 19.6385 1 1.11274
      vertex 19.3123 14 0.946549
      vertex 19.3123 1 0.946549
    endloop
  endfacet
  facet normal 2.95782e-008 1 1.86751e-007
    outer loop
      vertex 20 0.999999 5
      vertex 20.3615 1 1.11274
      vertex 20 1 1.17
    endloop
  endfacet
  facet normal -9.34221e-008 1 1.75311e-007
    outer loop
      vertex 20 0.999999 5
      vertex 20.6877 1 0.946549
      vertex 20.3615 1 1.11274
    endloop
  endfacet
  facet normal -4.71062e-008 1 1.83169e-007
    outer loop
      vertex 20 0.999999 5
      vertex 20.9465 1 0.687708
      vertex 20.6877 1 0.946549
    endloop
  endfacet
  facet normal 3.55362e-009 1 1.94288e-007
    outer loop
      vertex 25 1 0
      vertex 20.9465 1 0.687708
      vertex 20 0.999999 5
    endloop
  endfacet
  facet normal 1.74656e-009 1 1.83637e-007
    outer loop
      vertex 20.9465 1 0.687708
      vertex 25 1 0
      vertex 21.1127 1 0.361549
    endloop
  endfacet
  facet normal 0 1 1.64859e-007
    outer loop
      vertex 21.1127 1 0.361549
      vertex 25 1 0
      vertex 21.17 1 0
    endloop
  endfacet
  facet normal -2.95782e-008 1 1.86751e-007
    outer loop
      vertex 19.6385 1 1.11274
      vertex 20 0.999999 5
      vertex 20 1 1.17
    endloop
  endfacet
  facet normal 9.34221e-008 1 1.75311e-007
    outer loop
      vertex 19.3123 1 0.946549
      vertex 20 0.999999 5
      vertex 19.6385 1 1.11274
    endloop
  endfacet
  facet normal 4.71062e-008 1 1.83169e-007
    outer loop
      vertex 19.0535 1 0.687708
      vertex 20 0.999999 5
      vertex 19.3123 1 0.946549
    endloop
  endfacet
  facet normal -1.74656e-009 1 1.83637e-007
    outer loop
      vertex 15 1 0
      vertex 19.0535 1 0.687708
      vertex 18.8873 1 0.361549
    endloop
  endfacet
  facet normal -3.55362e-009 1 1.94288e-007
    outer loop
      vertex 19.0535 1 0.687708
      vertex 15 1 0
      vertex 20 0.999999 5
    endloop
  endfacet
  facet normal -0 1 1.64859e-007
    outer loop
      vertex 15 1 0
      vertex 18.8873 1 0.361549
      vertex 18.83 1 0
    endloop
  endfacet
  facet normal 0.707107 -0 0.707107
    outer loop
      vertex 22.9389 0 4.04508
      vertex 24.0451 0.999999 2.93893
      vertex 22.9389 0.999999 4.04508
    endloop
  endfacet
  facet normal 0.707107 0 0.707107
    outer loop
      vertex 24.0451 0.999999 2.93893
      vertex 22.9389 0 4.04508
      vertex 24.0451 0 2.93893
    endloop
  endfacet
  facet normal -0.156434 0 0.987688
    outer loop
      vertex 18.4549 0.999999 4.75528
      vertex 20 0 5
      vertex 20 0.999999 5
    endloop
  endfacet
  facet normal -0.156434 0 0.987688
    outer loop
      vertex 20 0 5
      vertex 18.4549 0.999999 4.75528
      vertex 18.4549 0 4.75528
    endloop
  endfacet
  facet normal -0.707107 0 0.707106
    outer loop
      vertex 15.9549 0 2.93893
      vertex 17.0611 0.999999 4.04508
      vertex 15.9549 0.999999 2.93893
    endloop
  endfacet
  facet normal -0.707107 0 0.707106
    outer loop
      vertex 17.0611 0.999999 4.04508
      vertex 15.9549 0 2.93893
      vertex 17.0611 0 4.04508
    endloop
  endfacet
  facet normal -0.987688 0 0.156435
    outer loop
      vertex 15 0 0
      vertex 15.2447 0.999999 1.54508
      vertex 15 1 0
    endloop
  endfacet
  facet normal -0.987688 0 0.156435
    outer loop
      vertex 15.2447 0.999999 1.54508
      vertex 15 0 0
      vertex 15.2447 0 1.54508
    endloop
  endfacet
  facet normal 0.987688 -0 0.156434
    outer loop
      vertex 24.7553 0 1.54508
      vertex 25 1 0
      vertex 24.7553 0.999999 1.54508
    endloop
  endfacet
  facet normal 0.987688 0 0.156434
    outer loop
      vertex 25 1 0
      vertex 24.7553 0 1.54508
      vertex 25 0 0
    endloop
  endfacet
  facet normal 1.62249e-007 1 3.18431e-007
    outer loop
      vertex 25 1 0
      vertex 21.5451 0.999999 4.75528
      vertex 22.9389 0.999999 4.04508
    endloop
  endfacet
  facet normal 3.58946e-008 1 2.26629e-007
    outer loop
      vertex 25 1 0
      vertex 20 0.999999 5
      vertex 21.5451 0.999999 4.75528
    endloop
  endfacet
  facet normal 0.156434 0 0.987688
    outer loop
      vertex 20 0.999999 5
      vertex 21.5451 0 4.75528
      vertex 21.5451 0.999999 4.75528
    endloop
  endfacet
  facet normal 0.156434 0 0.987688
    outer loop
      vertex 21.5451 0 4.75528
      vertex 20 0.999999 5
      vertex 20 0 5
    endloop
  endfacet
  facet normal -0.453991 0 0.891006
    outer loop
      vertex 17.0611 0.999999 4.04508
      vertex 18.4549 0 4.75528
      vertex 18.4549 0.999999 4.75528
    endloop
  endfacet
  facet normal -0.453991 0 0.891006
    outer loop
      vertex 18.4549 0 4.75528
      vertex 17.0611 0.999999 4.04508
      vertex 17.0611 0 4.04508
    endloop
  endfacet
  facet normal 0.891006 -0 0.453991
    outer loop
      vertex 24.0451 0 2.93893
      vertex 24.7553 0.999999 1.54508
      vertex 24.0451 0.999999 2.93893
    endloop
  endfacet
  facet normal 0.891006 0 0.453991
    outer loop
      vertex 24.7553 0.999999 1.54508
      vertex 24.0451 0 2.93893
      vertex 24.7553 0 1.54508
    endloop
  endfacet
  facet normal 0.453991 0 0.891006
    outer loop
      vertex 21.5451 0.999999 4.75528
      vertex 22.9389 0 4.04508
      vertex 22.9389 0.999999 4.04508
    endloop
  endfacet
  facet normal 0.453991 0 0.891006
    outer loop
      vertex 22.9389 0 4.04508
      vertex 21.5451 0.999999 4.75528
      vertex 21.5451 0 4.75528
    endloop
  endfacet
  facet normal -4.80681e-007 1 4.8068e-007
    outer loop
      vertex 17.0611 0.999999 4.04508
      vertex 15 1 0
      vertex 15.9549 0.999999 2.93893
    endloop
  endfacet
  facet normal -0.891006 0 0.453991
    outer loop
      vertex 15.2447 0 1.54508
      vertex 15.9549 0.999999 2.93893
      vertex 15.2447 0.999999 1.54508
    endloop
  endfacet
  facet normal -0.891006 0 0.453991
    outer loop
      vertex 15.9549 0.999999 2.93893
      vertex 15.2447 0 1.54508
      vertex 15.9549 0 2.93893
    endloop
  endfacet
  facet normal -3.58946e-008 1 2.26629e-007
    outer loop
      vertex 20 0.999999 5
      vertex 15 1 0
      vertex 18.4549 0.999999 4.75528
    endloop
  endfacet
  facet normal -1.62249e-007 1 3.18431e-007
    outer loop
      vertex 18.4549 0.999999 4.75528
      vertex 15 1 0
      vertex 17.0611 0.999999 4.04508
    endloop
  endfacet
  facet normal 1.75778e-006 1 8.95636e-007
    outer loop
      vertex 25 1 0
      vertex 24.0451 0.999999 2.93893
      vertex 24.7553 0.999999 1.54508
    endloop
  endfacet
  facet normal 4.8068e-007 1 4.8068e-007
    outer loop
      vertex 25 1 0
      vertex 22.9389 0.999999 4.04508
      vertex 24.0451 0.999999 2.93893
    endloop
  endfacet
  facet normal -1.75779e-006 1 8.95637e-007
    outer loop
      vertex 15.9549 0.999999 2.93893
      vertex 15 1 0
      vertex 15.2447 0.999999 1.54508
    endloop
  endfacet
  facet normal 0 0 -1
    outer loop
      vertex 25 0 0
      vertex 21.17 1 0
      vertex 25 1 0
    endloop
  endfacet
  facet normal 0 0 -1
    outer loop
      vertex 21.17 1 0
      vertex 18.83 1 0
      vertex 21.17 14 0
    endloop
  endfacet
  facet normal 0 0 -1
    outer loop
      vertex 25 0 0
      vertex 18.83 1 0
      vertex 21.17 1 0
    endloop
  endfacet
  facet normal 0 0 -1
    outer loop
      vertex 15 0 0
      vertex 18.83 1 0
      vertex 25 0 0
    endloop
  endfacet
  facet normal -0 0 -1
    outer loop
      vertex 18.83 1 0
      vertex 15 0 0
      vertex 15 1 0
    endloop
  endfacet
  facet normal -0 0 -1
    outer loop
      vertex 21.17 14 0
      vertex 18.83 1 0
      vertex 18.83 14 0
    endloop
  endfacet
  facet normal -0.453991 0 0.891006
    outer loop
      vertex 33.507 13 2.0549
      vertex 34.2151 1 2.41568
      vertex 34.2151 13 2.41568
    endloop
  endfacet
  facet normal -0.453991 0 0.891006
    outer loop
      vertex 34.2151 1 2.41568
      vertex 33.507 13 2.0549
      vertex 33.507 1 2.0549
    endloop
  endfacet
  facet normal 0.707107 0 0.707106
    outer loop
      vertex 36.493 13 2.0549
      vertex 37.0549 1 1.49297
      vertex 37.0549 13 1.49297
    endloop
  endfacet
  facet normal 0.707107 0 0.707106
    outer loop
      vertex 37.0549 1 1.49297
      vertex 36.493 13 2.0549
      vertex 36.493 1 2.0549
    endloop
  endfacet
  facet normal -0.987688 0 0.156435
    outer loop
      vertex 32.46 1 0
      vertex 32.5843 13 0.784903
      vertex 32.46 13 0
    endloop
  endfacet
  facet normal -0.987688 0 0.156435
    outer loop
      vertex 32.5843 13 0.784903
      vertex 32.46 1 0
      vertex 32.5843 1 0.784903
    endloop
  endfacet
  facet normal -0.707107 0 0.707106
    outer loop
      vertex 32.9451 1 1.49297
      vertex 33.507 13 2.0549
      vertex 32.9451 13 1.49297
    endloop
  endfacet
  facet normal -0.707107 0 0.707106
    outer loop
      vertex 33.507 13 2.0549
      vertex 32.9451 1 1.49297
      vertex 33.507 1 2.0549
    endloop
  endfacet
  facet normal 0 -1 0
    outer loop
      vertex 35 0 1.27
      vertex 35 0 5
      vertex 33.4549 0 4.75528
    endloop
  endfacet
  facet normal 0 -1 0
    outer loop
      vertex 34.6075 0 1.20784
      vertex 33.4549 0 4.75528
      vertex 32.0611 0 4.04508
    endloop
  endfacet
  facet normal 0 -1 0
    outer loop
      vertex 35 0 5
      vertex 35 0 1.27
      vertex 36.5451 0 4.75528
    endloop
  endfacet
  facet normal 0 -1 0
    outer loop
      vertex 34.2535 0 1.02745
      vertex 32.0611 0 4.04508
      vertex 30.9549 0 2.93893
    endloop
  endfacet
  facet normal 0 -1 0
    outer loop
      vertex 35.3925 0 1.20784
      vertex 36.5451 0 4.75528
      vertex 35 0 1.27
    endloop
  endfacet
  facet normal 0 -1 0
    outer loop
      vertex 33.9725 0 0.746487
      vertex 30.9549 0 2.93893
      vertex 30.2447 0 1.54508
    endloop
  endfacet
  facet normal 0 -1 -0
    outer loop
      vertex 36.5451 0 4.75528
      vertex 35.3925 0 1.20784
      vertex 37.9389 0 4.04508
    endloop
  endfacet
  facet normal 0 -1 0
    outer loop
      vertex 35.7465 0 1.02745
      vertex 37.9389 0 4.04508
      vertex 35.3925 0 1.20784
    endloop
  endfacet
  facet normal 0 -1 0
    outer loop
      vertex 33.4549 0 4.75528
      vertex 34.6075 0 1.20784
      vertex 35 0 1.27
    endloop
  endfacet
  facet normal 0 -1 0
    outer loop
      vertex 32.0611 0 4.04508
      vertex 34.2535 0 1.02745
      vertex 34.6075 0 1.20784
    endloop
  endfacet
  facet normal 0 -1 0
    outer loop
      vertex 30.9549 0 2.93893
      vertex 33.9725 0 0.746487
      vertex 34.2535 0 1.02745
    endloop
  endfacet
  facet normal 0 -1 0
    outer loop
      vertex 30.2447 0 1.54508
      vertex 33.7922 0 0.392451
      vertex 33.9725 0 0.746487
    endloop
  endfacet
  facet normal 0 -1 0
    outer loop
      vertex 30 0 0
      vertex 33.7922 0 0.392451
      vertex 30.2447 0 1.54508
    endloop
  endfacet
  facet normal 0 -1 0
    outer loop
      vertex 33.7922 0 0.392451
      vertex 30 0 0
      vertex 33.73 0 0
    endloop
  endfacet
  facet normal 0 -1 -0
    outer loop
      vertex 37.9389 0 4.04508
      vertex 35.7465 0 1.02745
      vertex 39.0451 0 2.93893
    endloop
  endfacet
  facet normal 0 -1 0
    outer loop
      vertex 36.0275 0 0.746487
      vertex 39.0451 0 2.93893
      vertex 35.7465 0 1.02745
    endloop
  endfacet
  facet normal 0 -1 -0
    outer loop
      vertex 39.0451 0 2.93893
      vertex 36.0275 0 0.746487
      vertex 39.7553 0 1.54508
    endloop
  endfacet
  facet normal 0 -1 0
    outer loop
      vertex 36.2078 0 0.392451
      vertex 39.7553 0 1.54508
      vertex 36.0275 0 0.746487
    endloop
  endfacet
  facet normal 0 -1 0
    outer loop
      vertex 36.27 0 0
      vertex 39.7553 0 1.54508
      vertex 36.2078 0 0.392451
    endloop
  endfacet
  facet normal 0 -1 -0
    outer loop
      vertex 39.7553 0 1.54508
      vertex 36.27 0 0
      vertex 40 0 0
    endloop
  endfacet
  facet normal -0.891005 0 0.453993
    outer loop
      vertex 32.5843 1 0.784903
      vertex 32.9451 13 1.49297
      vertex 32.5843 13 0.784903
    endloop
  endfacet
  facet normal -0.891005 0 0.453993
    outer loop
      vertex 32.9451 13 1.49297
      vertex 32.5843 1 0.784903
      vertex 32.9451 1 1.49297
    endloop
  endfacet
  facet normal 0.891005 0 0.453993
    outer loop
      vertex 37.0549 13 1.49297
      vertex 37.4157 1 0.784903
      vertex 37.4157 13 0.784903
    endloop
  endfacet
  facet normal 0.891005 0 0.453993
    outer loop
      vertex 37.4157 1 0.784903
      vertex 37.0549 13 1.49297
      vertex 37.0549 1 1.49297
    endloop
  endfacet
  facet normal 0.156435 0 0.987688
    outer loop
      vertex 35 13 2.54
      vertex 35.7849 1 2.41568
      vertex 35.7849 13 2.41568
    endloop
  endfacet
  facet normal 0.156435 0 0.987688
    outer loop
      vertex 35.7849 1 2.41568
      vertex 35 13 2.54
      vertex 35 1 2.54
    endloop
  endfacet
  facet normal 0.453991 0 0.891006
    outer loop
      vertex 35.7849 13 2.41568
      vertex 36.493 1 2.0549
      vertex 36.493 13 2.0549
    endloop
  endfacet
  facet normal 0.453991 0 0.891006
    outer loop
      vertex 36.493 1 2.0549
      vertex 35.7849 13 2.41568
      vertex 35.7849 1 2.41568
    endloop
  endfacet
  facet normal -0.156435 0 0.987688
    outer loop
      vertex 34.2151 13 2.41568
      vertex 35 1 2.54
      vertex 35 13 2.54
    endloop
  endfacet
  facet normal -0.156435 0 0.987688
    outer loop
      vertex 35 1 2.54
      vertex 34.2151 13 2.41568
      vertex 34.2151 1 2.41568
    endloop
  endfacet
  facet normal 0 1 0
    outer loop
      vertex 35 13 1.27
      vertex 35 13 2.54
      vertex 35.7849 13 2.41568
    endloop
  endfacet
  facet normal 0 1 0
    outer loop
      vertex 35.3925 13 1.20784
      vertex 35.7849 13 2.41568
      vertex 36.493 13 2.0549
    endloop
  endfacet
  facet normal 0 1 0
    outer loop
      vertex 35 13 2.54
      vertex 35 13 1.27
      vertex 34.2151 13 2.41568
    endloop
  endfacet
  facet normal 0 1 0
    outer loop
      vertex 35.7465 13 1.02745
      vertex 36.493 13 2.0549
      vertex 37.0549 13 1.49297
    endloop
  endfacet
  facet normal 0 1 -0
    outer loop
      vertex 34.6075 13 1.20784
      vertex 34.2151 13 2.41568
      vertex 35 13 1.27
    endloop
  endfacet
  facet normal 0 1 0
    outer loop
      vertex 34.2151 13 2.41568
      vertex 34.6075 13 1.20784
      vertex 33.507 13 2.0549
    endloop
  endfacet
  facet normal 0 1 0
    outer loop
      vertex 35.7849 13 2.41568
      vertex 35.3925 13 1.20784
      vertex 35 13 1.27
    endloop
  endfacet
  facet normal 0 1 0
    outer loop
      vertex 36.493 13 2.0549
      vertex 35.7465 13 1.02745
      vertex 35.3925 13 1.20784
    endloop
  endfacet
  facet normal 0 1 0
    outer loop
      vertex 36.0275 13 0.746487
      vertex 37.0549 13 1.49297
      vertex 37.4157 13 0.784903
    endloop
  endfacet
  facet normal 0 1 0
    outer loop
      vertex 37.0549 13 1.49297
      vertex 36.0275 13 0.746487
      vertex 35.7465 13 1.02745
    endloop
  endfacet
  facet normal 0 1 0
    outer loop
      vertex 37.4157 13 0.784903
      vertex 36.2078 13 0.392451
      vertex 36.0275 13 0.746487
    endloop
  endfacet
  facet normal 0 1 0
    outer loop
      vertex 37.54 13 0
      vertex 36.2078 13 0.392451
      vertex 37.4157 13 0.784903
    endloop
  endfacet
  facet normal 0 1 0
    outer loop
      vertex 36.2078 13 0.392451
      vertex 37.54 13 0
      vertex 36.27 13 0
    endloop
  endfacet
  facet normal 0 1 -0
    outer loop
      vertex 34.2535 13 1.02745
      vertex 33.507 13 2.0549
      vertex 34.6075 13 1.20784
    endloop
  endfacet
  facet normal 0 1 0
    outer loop
      vertex 33.507 13 2.0549
      vertex 34.2535 13 1.02745
      vertex 32.9451 13 1.49297
    endloop
  endfacet
  facet normal 0 1 -0
    outer loop
      vertex 33.9725 13 0.746487
      vertex 32.9451 13 1.49297
      vertex 34.2535 13 1.02745
    endloop
  endfacet
  facet normal 0 1 0
    outer loop
      vertex 32.9451 13 1.49297
      vertex 33.9725 13 0.746487
      vertex 32.5843 13 0.784903
    endloop
  endfacet
  facet normal 0 1 -0
    outer loop
      vertex 33.7922 13 0.392451
      vertex 32.5843 13 0.784903
      vertex 33.9725 13 0.746487
    endloop
  endfacet
  facet normal 0 1 -0
    outer loop
      vertex 33.73 13 0
      vertex 32.5843 13 0.784903
      vertex 33.7922 13 0.392451
    endloop
  endfacet
  facet normal 0 1 0
    outer loop
      vertex 32.5843 13 0.784903
      vertex 33.73 13 0
      vertex 32.46 13 0
    endloop
  endfacet
  facet normal 0.987688 0 0.156435
    outer loop
      vertex 37.4157 13 0.784903
      vertex 37.54 1 0
      vertex 37.54 13 0
    endloop
  endfacet
  facet normal 0.987688 0 0.156435
    outer loop
      vertex 37.54 1 0
      vertex 37.4157 13 0.784903
      vertex 37.4157 1 0.784903
    endloop
  endfacet
  facet normal 3.07008e-008 1 1.93836e-007
    outer loop
      vertex 35 0.999999 5
      vertex 35.7849 1 2.41568
      vertex 35 1 2.54
    endloop
  endfacet
  facet normal 1.1635e-008 1 1.88046e-007
    outer loop
      vertex 35 0.999999 5
      vertex 36.493 1 2.0549
      vertex 35.7849 1 2.41568
    endloop
  endfacet
  facet normal -6.08353e-008 1 1.51308e-007
    outer loop
      vertex 35 0.999999 5
      vertex 37.0549 1 1.49297
      vertex 36.493 1 2.0549
    endloop
  endfacet
  facet normal -9.13212e-009 1 1.81603e-007
    outer loop
      vertex 40 1 0
      vertex 37.0549 1 1.49297
      vertex 35 0.999999 5
    endloop
  endfacet
  facet normal -2.13651e-008 1 1.57472e-007
    outer loop
      vertex 40 1 0
      vertex 37.4157 1 0.784903
      vertex 37.0549 1 1.49297
    endloop
  endfacet
  facet normal 0 1 2.27817e-007
    outer loop
      vertex 37.4157 1 0.784903
      vertex 40 1 0
      vertex 37.54 1 0
    endloop
  endfacet
  facet normal -3.07008e-008 1 1.93836e-007
    outer loop
      vertex 34.2151 1 2.41568
      vertex 35 0.999999 5
      vertex 35 1 2.54
    endloop
  endfacet
  facet normal -1.1635e-008 1 1.88046e-007
    outer loop
      vertex 33.507 1 2.0549
      vertex 35 0.999999 5
      vertex 34.2151 1 2.41568
    endloop
  endfacet
  facet normal 6.08353e-008 1 1.51308e-007
    outer loop
      vertex 32.9451 1 1.49297
      vertex 35 0.999999 5
      vertex 33.507 1 2.0549
    endloop
  endfacet
  facet normal 9.13212e-009 1 1.81603e-007
    outer loop
      vertex 32.9451 1 1.49297
      vertex 30 1 0
      vertex 35 0.999999 5
    endloop
  endfacet
  facet normal 2.13651e-008 1 1.57472e-007
    outer loop
      vertex 32.5843 1 0.784903
      vertex 30 1 0
      vertex 32.9451 1 1.49297
    endloop
  endfacet
  facet normal -0 1 2.27817e-007
    outer loop
      vertex 30 1 0
      vertex 32.5843 1 0.784903
      vertex 32.46 1 0
    endloop
  endfacet
  facet normal 3.58946e-008 1 2.26629e-007
    outer loop
      vertex 40 1 0
      vertex 35 0.999999 5
      vertex 36.5451 0.999999 4.75528
    endloop
  endfacet
  facet normal 4.8068e-007 1 4.8068e-007
    outer loop
      vertex 40 1 0
      vertex 37.9389 0.999999 4.04508
      vertex 39.0451 0.999999 2.93893
    endloop
  endfacet
  facet normal -0.987688 0 0.156434
    outer loop
      vertex 30 0 0
      vertex 30.2447 0.999999 1.54508
      vertex 30 1 0
    endloop
  endfacet
  facet normal -0.987688 0 0.156434
    outer loop
      vertex 30.2447 0.999999 1.54508
      vertex 30 0 0
      vertex 30.2447 0 1.54508
    endloop
  endfacet
  facet normal 0.707107 -0 0.707107
    outer loop
      vertex 37.9389 0 4.04508
      vertex 39.0451 0.999999 2.93893
      vertex 37.9389 0.999999 4.04508
    endloop
  endfacet
  facet normal 0.707107 0 0.707107
    outer loop
      vertex 39.0451 0.999999 2.93893
      vertex 37.9389 0 4.04508
      vertex 39.0451 0 2.93893
    endloop
  endfacet
  facet normal 0.156434 0 0.987688
    outer loop
      vertex 35 0.999999 5
      vertex 36.5451 0 4.75528
      vertex 36.5451 0.999999 4.75528
    endloop
  endfacet
  facet normal 0.156434 0 0.987688
    outer loop
      vertex 36.5451 0 4.75528
      vertex 35 0.999999 5
      vertex 35 0 5
    endloop
  endfacet
  facet normal -1.62249e-007 1 3.18431e-007
    outer loop
      vertex 33.4549 0.999999 4.75528
      vertex 30 1 0
      vertex 32.0611 0.999999 4.04508
    endloop
  endfacet
  facet normal -0.453991 0 0.891006
    outer loop
      vertex 32.0611 0.999999 4.04508
      vertex 33.4549 0 4.75528
      vertex 33.4549 0.999999 4.75528
    endloop
  endfacet
  facet normal -0.453991 0 0.891006
    outer loop
      vertex 33.4549 0 4.75528
      vertex 32.0611 0.999999 4.04508
      vertex 32.0611 0 4.04508
    endloop
  endfacet
  facet normal 0.987688 -0 0.156434
    outer loop
      vertex 39.7553 0 1.54508
      vertex 40 1 0
      vertex 39.7553 0.999999 1.54508
    endloop
  endfacet
  facet normal 0.987688 0 0.156434
    outer loop
      vertex 40 1 0
      vertex 39.7553 0 1.54508
      vertex 40 0 0
    endloop
  endfacet
  facet normal 0.453991 0 0.891006
    outer loop
      vertex 36.5451 0.999999 4.75528
      vertex 37.9389 0 4.04508
      vertex 37.9389 0.999999 4.04508
    endloop
  endfacet
  facet normal 0.453991 0 0.891006
    outer loop
      vertex 37.9389 0 4.04508
      vertex 36.5451 0.999999 4.75528
      vertex 36.5451 0 4.75528
    endloop
  endfacet
  facet normal 1.62249e-007 1 3.18431e-007
    outer loop
      vertex 40 1 0
      vertex 36.5451 0.999999 4.75528
      vertex 37.9389 0.999999 4.04508
    endloop
  endfacet
  facet normal -0.707107 0 0.707107
    outer loop
      vertex 30.9549 0 2.93893
      vertex 32.0611 0.999999 4.04508
      vertex 30.9549 0.999999 2.93893
    endloop
  endfacet
  facet normal -0.707107 0 0.707107
    outer loop
      vertex 32.0611 0.999999 4.04508
      vertex 30.9549 0 2.93893
      vertex 32.0611 0 4.04508
    endloop
  endfacet
  facet normal -4.8068e-007 1 4.8068e-007
    outer loop
      vertex 32.0611 0.999999 4.04508
      vertex 30 1 0
      vertex 30.9549 0.999999 2.93893
    endloop
  endfacet
  facet normal -0.156434 0 0.987688
    outer loop
      vertex 33.4549 0.999999 4.75528
      vertex 35 0 5
      vertex 35 0.999999 5
    endloop
  endfacet
  facet normal -0.156434 0 0.987688
    outer loop
      vertex 35 0 5
      vertex 33.4549 0.999999 4.75528
      vertex 33.4549 0 4.75528
    endloop
  endfacet
  facet normal -3.58946e-008 1 2.26629e-007
    outer loop
      vertex 35 0.999999 5
      vertex 30 1 0
      vertex 33.4549 0.999999 4.75528
    endloop
  endfacet
  facet normal 0.891006 -0 0.453991
    outer loop
      vertex 39.0451 0 2.93893
      vertex 39.7553 0.999999 1.54508
      vertex 39.0451 0.999999 2.93893
    endloop
  endfacet
  facet normal 0.891006 0 0.453991
    outer loop
      vertex 39.7553 0.999999 1.54508
      vertex 39.0451 0 2.93893
      vertex 39.7553 0 1.54508
    endloop
  endfacet
  facet normal 1.75778e-006 1 8.95636e-007
    outer loop
      vertex 40 1 0
      vertex 39.0451 0.999999 2.93893
      vertex 39.7553 0.999999 1.54508
    endloop
  endfacet
  facet normal -0.891006 0 0.453991
    outer loop
      vertex 30.2447 0 1.54508
      vertex 30.9549 0.999999 2.93893
      vertex 30.2447 0.999999 1.54508
    endloop
  endfacet
  facet normal -0.891006 0 0.453991
    outer loop
      vertex 30.9549 0.999999 2.93893
      vertex 30.2447 0 1.54508
      vertex 30.9549 0 2.93893
    endloop
  endfacet
  facet normal -1.75778e-006 1 8.95636e-007
    outer loop
      vertex 30.9549 0.999999 2.93893
      vertex 30 1 0
      vertex 30.2447 0.999999 1.54508
    endloop
  endfacet
  facet normal 0.45399 0 -0.891007
    outer loop
      vertex 34.2535 0 1.02745
      vertex 34.6075 13 1.20784
      vertex 34.6075 0 1.20784
    endloop
  endfacet
  facet normal 0.45399 0 -0.891007
    outer loop
      vertex 34.6075 13 1.20784
      vertex 34.2535 0 1.02745
      vertex 34.2535 13 1.02745
    endloop
  endfacet
  facet normal -0.707108 0 -0.707106
    outer loop
      vertex 36.0275 0 0.746487
      vertex 35.7465 13 1.02745
      vertex 36.0275 13 0.746487
    endloop
  endfacet
  facet normal -0.707108 -0 -0.707106
    outer loop
      vertex 35.7465 13 1.02745
      vertex 36.0275 0 0.746487
      vertex 35.7465 0 1.02745
    endloop
  endfacet
  facet normal 0.987687 0 -0.15644
    outer loop
      vertex 33.7922 0 0.392451
      vertex 33.73 13 0
      vertex 33.7922 13 0.392451
    endloop
  endfacet
  facet normal 0.987687 0 -0.15644
    outer loop
      vertex 33.73 13 0
      vertex 33.7922 0 0.392451
      vertex 33.73 0 0
    endloop
  endfacet
  facet normal 0.707108 0 -0.707106
    outer loop
      vertex 34.2535 0 1.02745
      vertex 33.9725 13 0.746487
      vertex 34.2535 13 1.02745
    endloop
  endfacet
  facet normal 0.707108 0 -0.707106
    outer loop
      vertex 33.9725 13 0.746487
      vertex 34.2535 0 1.02745
      vertex 33.9725 0 0.746487
    endloop
  endfacet
  facet normal 0.891007 0 -0.453989
    outer loop
      vertex 33.9725 0 0.746487
      vertex 33.7922 13 0.392451
      vertex 33.9725 13 0.746487
    endloop
  endfacet
  facet normal 0.891007 0 -0.453989
    outer loop
      vertex 33.7922 13 0.392451
      vertex 33.9725 0 0.746487
      vertex 33.7922 0 0.392451
    endloop
  endfacet
  facet normal -0.891007 0 -0.453989
    outer loop
      vertex 36.2078 0 0.392451
      vertex 36.0275 13 0.746487
      vertex 36.2078 13 0.392451
    endloop
  endfacet
  facet normal -0.891007 -0 -0.453989
    outer loop
      vertex 36.0275 13 0.746487
      vertex 36.2078 0 0.392451
      vertex 36.0275 0 0.746487
    endloop
  endfacet
  facet normal -0.156435 0 -0.987688
    outer loop
      vertex 35 0 1.27
      vertex 35.3925 13 1.20784
      vertex 35.3925 0 1.20784
    endloop
  endfacet
  facet normal -0.156435 0 -0.987688
    outer loop
      vertex 35.3925 13 1.20784
      vertex 35 0 1.27
      vertex 35 13 1.27
    endloop
  endfacet
  facet normal -0.45399 0 -0.891007
    outer loop
      vertex 35.3925 0 1.20784
      vertex 35.7465 13 1.02745
      vertex 35.7465 0 1.02745
    endloop
  endfacet
  facet normal -0.45399 0 -0.891007
    outer loop
      vertex 35.7465 13 1.02745
      vertex 35.3925 0 1.20784
      vertex 35.3925 13 1.20784
    endloop
  endfacet
  facet normal 0.156435 0 -0.987688
    outer loop
      vertex 34.6075 0 1.20784
      vertex 35 13 1.27
      vertex 35 0 1.27
    endloop
  endfacet
  facet normal 0.156435 0 -0.987688
    outer loop
      vertex 35 13 1.27
      vertex 34.6075 0 1.20784
      vertex 34.6075 13 1.20784
    endloop
  endfacet
  facet normal -0.987687 0 -0.15644
    outer loop
      vertex 36.27 0 0
      vertex 36.2078 13 0.392451
      vertex 36.27 13 0
    endloop
  endfacet
  facet normal -0.987687 -0 -0.15644
    outer loop
      vertex 36.2078 13 0.392451
      vertex 36.27 0 0
      vertex 36.2078 0 0.392451
    endloop
  endfacet
  facet normal 0 0 -1
    outer loop
      vertex 40 0 0
      vertex 37.54 1 0
      vertex 40 1 0
    endloop
  endfacet
  facet normal 0 0 -1
    outer loop
      vertex 36.27 0 0
      vertex 37.54 1 0
      vertex 40 0 0
    endloop
  endfacet
  facet normal 0 0 -1
    outer loop
      vertex 36.27 13 0
      vertex 37.54 1 0
      vertex 36.27 0 0
    endloop
  endfacet
  facet normal 0 0 -1
    outer loop
      vertex 37.54 1 0
      vertex 36.27 13 0
      vertex 37.54 13 0
    endloop
  endfacet
  facet normal 0 0 -1
    outer loop
      vertex 33.73 0 0
      vertex 32.46 1 0
      vertex 33.73 13 0
    endloop
  endfacet
  facet normal 0 0 -1
    outer loop
      vertex 30 0 0
      vertex 32.46 1 0
      vertex 33.73 0 0
    endloop
  endfacet
  facet normal -0 0 -1
    outer loop
      vertex 32.46 1 0
      vertex 30 0 0
      vertex 30 1 0
    endloop
  endfacet
  facet normal -0 0 -1
    outer loop
      vertex 33.73 13 0
      vertex 32.46 1 0
      vertex 32.46 13 0
    endloop
  endfacet
  facet normal -0.453991 0 0.891006
    outer loop
      vertex 48.507 13 2.0549
      vertex 49.2151 1 2.41568
      vertex 49.2151 13 2.41568
    endloop
  endfacet
  facet normal -0.453991 0 0.891006
    outer loop
      vertex 49.2151 1 2.41568
      vertex 48.507 13 2.0549
      vertex 48.507 1 2.0549
    endloop
  endfacet
  facet normal 0.707107 0 0.707106
    outer loop
      vertex 51.493 13 2.0549
      vertex 52.0549 1 1.49297
      vertex 52.0549 13 1.49297
    endloop
  endfacet
  facet normal 0.707107 0 0.707106
    outer loop
      vertex 52.0549 1 1.49297
      vertex 51.493 13 2.0549
      vertex 51.493 1 2.0549
    endloop
  endfacet
  facet normal -0.987688 0 0.156435
    outer loop
      vertex 47.46 1 0
      vertex 47.5843 13 0.784903
      vertex 47.46 13 0
    endloop
  endfacet
  facet normal -0.987688 0 0.156435
    outer loop
      vertex 47.5843 13 0.784903
      vertex 47.46 1 0
      vertex 47.5843 1 0.784903
    endloop
  endfacet
  facet normal -0.707107 0 0.707106
    outer loop
      vertex 47.9451 1 1.49297
      vertex 48.507 13 2.0549
      vertex 47.9451 13 1.49297
    endloop
  endfacet
  facet normal -0.707107 0 0.707106
    outer loop
      vertex 48.507 13 2.0549
      vertex 47.9451 1 1.49297
      vertex 48.507 1 2.0549
    endloop
  endfacet
  facet normal 0 -1 0
    outer loop
      vertex 50 0 1.27
      vertex 50 0 5
      vertex 48.4549 0 4.75528
    endloop
  endfacet
  facet normal 0 -1 0
    outer loop
      vertex 49.6075 0 1.20784
      vertex 48.4549 0 4.75528
      vertex 47.0611 0 4.04508
    endloop
  endfacet
  facet normal 0 -1 0
    outer loop
      vertex 50 0 5
      vertex 50 0 1.27
      vertex 51.5451 0 4.75528
    endloop
  endfacet
  facet normal 0 -1 0
    outer loop
      vertex 49.2535 0 1.02745
      vertex 47.0611 0 4.04508
      vertex 45.9549 0 2.93893
    endloop
  endfacet
  facet normal 0 -1 0
    outer loop
      vertex 50.3925 0 1.20784
      vertex 51.5451 0 4.75528
      vertex 50 0 1.27
    endloop
  endfacet
  facet normal 0 -1 0
    outer loop
      vertex 48.9725 0 0.746487
      vertex 45.9549 0 2.93893
      vertex 45.2447 0 1.54508
    endloop
  endfacet
  facet normal 0 -1 -0
    outer loop
      vertex 51.5451 0 4.75528
      vertex 50.3925 0 1.20784
      vertex 52.9389 0 4.04508
    endloop
  endfacet
  facet normal 0 -1 0
    outer loop
      vertex 50.7465 0 1.02745
      vertex 52.9389 0 4.04508
      vertex 50.3925 0 1.20784
    endloop
  endfacet
  facet normal 0 -1 0
    outer loop
      vertex 48.4549 0 4.75528
      vertex 49.6075 0 1.20784
      vertex 50 0 1.27
    endloop
  endfacet
  facet normal 0 -1 0
    outer loop
      vertex 47.0611 0 4.04508
      vertex 49.2535 0 1.02745
      vertex 49.6075 0 1.20784
    endloop
  endfacet
  facet normal 0 -1 0
    outer loop
      vertex 45.9549 0 2.93893
      vertex 48.9725 0 0.746487
      vertex 49.2535 0 1.02745
    endloop
  endfacet
  facet normal 0 -1 0
    outer loop
      vertex 45.2447 0 1.54508
      vertex 48.7922 0 0.392451
      vertex 48.9725 0 0.746487
    endloop
  endfacet
  facet normal 0 -1 0
    outer loop
      vertex 45 0 0
      vertex 48.7922 0 0.392451
      vertex 45.2447 0 1.54508
    endloop
  endfacet
  facet normal 0 -1 0
    outer loop
      vertex 48.7922 0 0.392451
      vertex 45 0 0
      vertex 48.73 0 0
    endloop
  endfacet
  facet normal 0 -1 -0
    outer loop
      vertex 52.9389 0 4.04508
      vertex 50.7465 0 1.02745
      vertex 54.0451 0 2.93893
    endloop
  endfacet
  facet normal 0 -1 0
    outer loop
      vertex 51.0275 0 0.746487
      vertex 54.0451 0 2.93893
      vertex 50.7465 0 1.02745
    endloop
  endfacet
  facet normal 0 -1 -0
    outer loop
      vertex 54.0451 0 2.93893
      vertex 51.0275 0 0.746487
      vertex 54.7553 0 1.54508
    endloop
  endfacet
  facet normal 0 -1 0
    outer loop
      vertex 51.2078 0 0.392451
      vertex 54.7553 0 1.54508
      vertex 51.0275 0 0.746487
    endloop
  endfacet
  facet normal 0 -1 0
    outer loop
      vertex 51.27 0 0
      vertex 54.7553 0 1.54508
      vertex 51.2078 0 0.392451
    endloop
  endfacet
  facet normal 0 -1 -0
    outer loop
      vertex 54.7553 0 1.54508
      vertex 51.27 0 0
      vertex 55 0 0
    endloop
  endfacet
  facet normal -0.891005 0 0.453993
    outer loop
      vertex 47.5843 1 0.784903
      vertex 47.9451 13 1.49297
      vertex 47.5843 13 0.784903
    endloop
  endfacet
  facet normal -0.891005 0 0.453993
    outer loop
      vertex 47.9451 13 1.49297
      vertex 47.5843 1 0.784903
      vertex 47.9451 1 1.49297
    endloop
  endfacet
  facet normal 0.891005 0 0.453993
    outer loop
      vertex 52.0549 13 1.49297
      vertex 52.4157 1 0.784903
      vertex 52.4157 13 0.784903
    endloop
  endfacet
  facet normal 0.891005 0 0.453993
    outer loop
      vertex 52.4157 1 0.784903
      vertex 52.0549 13 1.49297
      vertex 52.0549 1 1.49297
    endloop
  endfacet
  facet normal 0.156435 0 0.987688
    outer loop
      vertex 50 13 2.54
      vertex 50.7849 1 2.41568
      vertex 50.7849 13 2.41568
    endloop
  endfacet
  facet normal 0.156435 0 0.987688
    outer loop
      vertex 50.7849 1 2.41568
      vertex 50 13 2.54
      vertex 50 1 2.54
    endloop
  endfacet
  facet normal 0.453991 0 0.891006
    outer loop
      vertex 50.7849 13 2.41568
      vertex 51.493 1 2.0549
      vertex 51.493 13 2.0549
    endloop
  endfacet
  facet normal 0.453991 0 0.891006
    outer loop
      vertex 51.493 1 2.0549
      vertex 50.7849 13 2.41568
      vertex 50.7849 1 2.41568
    endloop
  endfacet
  facet normal -0.156435 0 0.987688
    outer loop
      vertex 49.2151 13 2.41568
      vertex 50 1 2.54
      vertex 50 13 2.54
    endloop
  endfacet
  facet normal -0.156435 0 0.987688
    outer loop
      vertex 50 1 2.54
      vertex 49.2151 13 2.41568
      vertex 49.2151 1 2.41568
    endloop
  endfacet
  facet normal 0 1 0
    outer loop
      vertex 50 13 1.27
      vertex 50 13 2.54
      vertex 50.7849 13 2.41568
    endloop
  endfacet
  facet normal 0 1 0
    outer loop
      vertex 50.3925 13 1.20784
      vertex 50.7849 13 2.41568
      vertex 51.493 13 2.0549
    endloop
  endfacet
  facet normal 0 1 0
    outer loop
      vertex 50 13 2.54
      vertex 50 13 1.27
      vertex 49.2151 13 2.41568
    endloop
  endfacet
  facet normal 0 1 0
    outer loop
      vertex 50.7465 13 1.02745
      vertex 51.493 13 2.0549
      vertex 52.0549 13 1.49297
    endloop
  endfacet
  facet normal 0 1 -0
    outer loop
      vertex 49.6075 13 1.20784
      vertex 49.2151 13 2.41568
      vertex 50 13 1.27
    endloop
  endfacet
  facet normal 0 1 0
    outer loop
      vertex 49.2151 13 2.41568
      vertex 49.6075 13 1.20784
      vertex 48.507 13 2.0549
    endloop
  endfacet
  facet normal 0 1 0
    outer loop
      vertex 50.7849 13 2.41568
      vertex 50.3925 13 1.20784
      vertex 50 13 1.27
    endloop
  endfacet
  facet normal 0 1 0
    outer loop
      vertex 51.493 13 2.0549
      vertex 50.7465 13 1.02745
      vertex 50.3925 13 1.20784
    endloop
  endfacet
  facet normal 0 1 0
    outer loop
      vertex 51.0275 13 0.746487
      vertex 52.0549 13 1.49297
      vertex 52.4157 13 0.784903
    endloop
  endfacet
  facet normal 0 1 0
    outer loop
      vertex 52.0549 13 1.49297
      vertex 51.0275 13 0.746487
      vertex 50.7465 13 1.02745
    endloop
  endfacet
  facet normal 0 1 0
    outer loop
      vertex 52.4157 13 0.784903
      vertex 51.2078 13 0.392451
      vertex 51.0275 13 0.746487
    endloop
  endfacet
  facet normal 0 1 0
    outer loop
      vertex 52.54 13 0
      vertex 51.2078 13 0.392451
      vertex 52.4157 13 0.784903
    endloop
  endfacet
  facet normal 0 1 0
    outer loop
      vertex 51.2078 13 0.392451
      vertex 52.54 13 0
      vertex 51.27 13 0
    endloop
  endfacet
  facet normal 0 1 -0
    outer loop
      vertex 49.2535 13 1.02745
      vertex 48.507 13 2.0549
      vertex 49.6075 13 1.20784
    endloop
  endfacet
  facet normal 0 1 0
    outer loop
      vertex 48.507 13 2.0549
      vertex 49.2535 13 1.02745
      vertex 47.9451 13 1.49297
    endloop
  endfacet
  facet normal 0 1 -0
    outer loop
      vertex 48.9725 13 0.746487
      vertex 47.9451 13 1.49297
      vertex 49.2535 13 1.02745
    endloop
  endfacet
  facet normal 0 1 0
    outer loop
      vertex 47.9451 13 1.49297
      vertex 48.9725 13 0.746487
      vertex 47.5843 13 0.784903
    endloop
  endfacet
  facet normal 0 1 -0
    outer loop
      vertex 48.7922 13 0.392451
      vertex 47.5843 13 0.784903
      vertex 48.9725 13 0.746487
    endloop
  endfacet
  facet normal 0 1 -0
    outer loop
      vertex 48.73 13 0
      vertex 47.5843 13 0.784903
      vertex 48.7922 13 0.392451
    endloop
  endfacet
  facet normal 0 1 0
    outer loop
      vertex 47.5843 13 0.784903
      vertex 48.73 13 0
      vertex 47.46 13 0
    endloop
  endfacet
  facet normal 0.987688 0 0.156435
    outer loop
      vertex 52.4157 13 0.784903
      vertex 52.54 1 0
      vertex 52.54 13 0
    endloop
  endfacet
  facet normal 0.987688 0 0.156435
    outer loop
      vertex 52.54 1 0
      vertex 52.4157 13 0.784903
      vertex 52.4157 1 0.784903
    endloop
  endfacet
  facet normal 3.07008e-008 1 1.93836e-007
    outer loop
      vertex 50 0.999999 5
      vertex 50.7849 1 2.41568
      vertex 50 1 2.54
    endloop
  endfacet
  facet normal 1.1635e-008 1 1.88046e-007
    outer loop
      vertex 50 0.999999 5
      vertex 51.493 1 2.0549
      vertex 50.7849 1 2.41568
    endloop
  endfacet
  facet normal -6.08353e-008 1 1.51308e-007
    outer loop
      vertex 50 0.999999 5
      vertex 52.0549 1 1.49297
      vertex 51.493 1 2.0549
    endloop
  endfacet
  facet normal -9.13212e-009 1 1.81603e-007
    outer loop
      vertex 55 1 0
      vertex 52.0549 1 1.49297
      vertex 50 0.999999 5
    endloop
  endfacet
  facet normal -2.13651e-008 1 1.57472e-007
    outer loop
      vertex 55 1 0
      vertex 52.4157 1 0.784903
      vertex 52.0549 1 1.49297
    endloop
  endfacet
  facet normal 0 1 2.27817e-007
    outer loop
      vertex 52.4157 1 0.784903
      vertex 55 1 0
      vertex 52.54 1 0
    endloop
  endfacet
  facet normal -3.07008e-008 1 1.93836e-007
    outer loop
      vertex 49.2151 1 2.41568
      vertex 50 0.999999 5
      vertex 50 1 2.54
    endloop
  endfacet
  facet normal -1.1635e-008 1 1.88046e-007
    outer loop
      vertex 48.507 1 2.0549
      vertex 50 0.999999 5
      vertex 49.2151 1 2.41568
    endloop
  endfacet
  facet normal 6.08353e-008 1 1.51308e-007
    outer loop
      vertex 47.9451 1 1.49297
      vertex 50 0.999999 5
      vertex 48.507 1 2.0549
    endloop
  endfacet
  facet normal 9.13212e-009 1 1.81603e-007
    outer loop
      vertex 47.9451 1 1.49297
      vertex 45 1 0
      vertex 50 0.999999 5
    endloop
  endfacet
  facet normal 2.13651e-008 1 1.57472e-007
    outer loop
      vertex 47.5843 1 0.784903
      vertex 45 1 0
      vertex 47.9451 1 1.49297
    endloop
  endfacet
  facet normal -0 1 2.27817e-007
    outer loop
      vertex 45 1 0
      vertex 47.5843 1 0.784903
      vertex 47.46 1 0
    endloop
  endfacet
  facet normal 3.58946e-008 1 2.26629e-007
    outer loop
      vertex 55 1 0
      vertex 50 0.999999 5
      vertex 51.5451 0.999999 4.75528
    endloop
  endfacet
  facet normal 4.8068e-007 1 4.8068e-007
    outer loop
      vertex 55 1 0
      vertex 52.9389 0.999999 4.04508
      vertex 54.0451 0.999999 2.93893
    endloop
  endfacet
  facet normal -0.987688 0 0.156434
    outer loop
      vertex 45 0 0
      vertex 45.2447 0.999999 1.54508
      vertex 45 1 0
    endloop
  endfacet
  facet normal -0.987688 0 0.156434
    outer loop
      vertex 45.2447 0.999999 1.54508
      vertex 45 0 0
      vertex 45.2447 0 1.54508
    endloop
  endfacet
  facet normal 0.707107 -0 0.707107
    outer loop
      vertex 52.9389 0 4.04508
      vertex 54.0451 0.999999 2.93893
      vertex 52.9389 0.999999 4.04508
    endloop
  endfacet
  facet normal 0.707107 0 0.707107
    outer loop
      vertex 54.0451 0.999999 2.93893
      vertex 52.9389 0 4.04508
      vertex 54.0451 0 2.93893
    endloop
  endfacet
  facet normal 0.156434 0 0.987688
    outer loop
      vertex 50 0.999999 5
      vertex 51.5451 0 4.75528
      vertex 51.5451 0.999999 4.75528
    endloop
  endfacet
  facet normal 0.156434 0 0.987688
    outer loop
      vertex 51.5451 0 4.75528
      vertex 50 0.999999 5
      vertex 50 0 5
    endloop
  endfacet
  facet normal -1.62249e-007 1 3.18431e-007
    outer loop
      vertex 48.4549 0.999999 4.75528
      vertex 45 1 0
      vertex 47.0611 0.999999 4.04508
    endloop
  endfacet
  facet normal -0.453991 0 0.891006
    outer loop
      vertex 47.0611 0.999999 4.04508
      vertex 48.4549 0 4.75528
      vertex 48.4549 0.999999 4.75528
    endloop
  endfacet
  facet normal -0.453991 0 0.891006
    outer loop
      vertex 48.4549 0 4.75528
      vertex 47.0611 0.999999 4.04508
      vertex 47.0611 0 4.04508
    endloop
  endfacet
  facet normal 0.987688 -0 0.156434
    outer loop
      vertex 54.7553 0 1.54508
      vertex 55 1 0
      vertex 54.7553 0.999999 1.54508
    endloop
  endfacet
  facet normal 0.987688 0 0.156434
    outer loop
      vertex 55 1 0
      vertex 54.7553 0 1.54508
      vertex 55 0 0
    endloop
  endfacet
  facet normal 0.453991 0 0.891006
    outer loop
      vertex 51.5451 0.999999 4.75528
      vertex 52.9389 0 4.04508
      vertex 52.9389 0.999999 4.04508
    endloop
  endfacet
  facet normal 0.453991 0 0.891006
    outer loop
      vertex 52.9389 0 4.04508
      vertex 51.5451 0.999999 4.75528
      vertex 51.5451 0 4.75528
    endloop
  endfacet
  facet normal 1.62249e-007 1 3.18431e-007
    outer loop
      vertex 55 1 0
      vertex 51.5451 0.999999 4.75528
      vertex 52.9389 0.999999 4.04508
    endloop
  endfacet
  facet normal -0.707107 0 0.707107
    outer loop
      vertex 45.9549 0 2.93893
      vertex 47.0611 0.999999 4.04508
      vertex 45.9549 0.999999 2.93893
    endloop
  endfacet
  facet normal -0.707107 0 0.707107
    outer loop
      vertex 47.0611 0.999999 4.04508
      vertex 45.9549 0 2.93893
      vertex 47.0611 0 4.04508
    endloop
  endfacet
  facet normal -4.8068e-007 1 4.8068e-007
    outer loop
      vertex 47.0611 0.999999 4.04508
      vertex 45 1 0
      vertex 45.9549 0.999999 2.93893
    endloop
  endfacet
  facet normal -0.156434 0 0.987688
    outer loop
      vertex 48.4549 0.999999 4.75528
      vertex 50 0 5
      vertex 50 0.999999 5
    endloop
  endfacet
  facet normal -0.156434 0 0.987688
    outer loop
      vertex 50 0 5
      vertex 48.4549 0.999999 4.75528
      vertex 48.4549 0 4.75528
    endloop
  endfacet
  facet normal -3.58946e-008 1 2.26629e-007
    outer loop
      vertex 50 0.999999 5
      vertex 45 1 0
      vertex 48.4549 0.999999 4.75528
    endloop
  endfacet
  facet normal 0.891006 -0 0.453991
    outer loop
      vertex 54.0451 0 2.93893
      vertex 54.7553 0.999999 1.54508
      vertex 54.0451 0.999999 2.93893
    endloop
  endfacet
  facet normal 0.891006 0 0.453991
    outer loop
      vertex 54.7553 0.999999 1.54508
      vertex 54.0451 0 2.93893
      vertex 54.7553 0 1.54508
    endloop
  endfacet
  facet normal 1.75778e-006 1 8.95636e-007
    outer loop
      vertex 55 1 0
      vertex 54.0451 0.999999 2.93893
      vertex 54.7553 0.999999 1.54508
    endloop
  endfacet
  facet normal -0.891006 0 0.453991
    outer loop
      vertex 45.2447 0 1.54508
      vertex 45.9549 0.999999 2.93893
      vertex 45.2447 0.999999 1.54508
    endloop
  endfacet
  facet normal -0.891006 0 0.453991
    outer loop
      vertex 45.9549 0.999999 2.93893
      vertex 45.2447 0 1.54508
      vertex 45.9549 0 2.93893
    endloop
  endfacet
  facet normal -1.75778e-006 1 8.95636e-007
    outer loop
      vertex 45.9549 0.999999 2.93893
      vertex 45 1 0
      vertex 45.2447 0.999999 1.54508
    endloop
  endfacet
  facet normal 0.45399 0 -0.891007
    outer loop
      vertex 49.2535 0 1.02745
      vertex 49.6075 13 1.20784
      vertex 49.6075 0 1.20784
    endloop
  endfacet
  facet normal 0.45399 0 -0.891007
    outer loop
      vertex 49.6075 13 1.20784
      vertex 49.2535 0 1.02745
      vertex 49.2535 13 1.02745
    endloop
  endfacet
  facet normal -0.707108 0 -0.707106
    outer loop
      vertex 51.0275 0 0.746487
      vertex 50.7465 13 1.02745
      vertex 51.0275 13 0.746487
    endloop
  endfacet
  facet normal -0.707108 -0 -0.707106
    outer loop
      vertex 50.7465 13 1.02745
      vertex 51.0275 0 0.746487
      vertex 50.7465 0 1.02745
    endloop
  endfacet
  facet normal 0.987687 0 -0.15644
    outer loop
      vertex 48.7922 0 0.392451
      vertex 48.73 13 0
      vertex 48.7922 13 0.392451
    endloop
  endfacet
  facet normal 0.987687 0 -0.15644
    outer loop
      vertex 48.73 13 0
      vertex 48.7922 0 0.392451
      vertex 48.73 0 0
    endloop
  endfacet
  facet normal 0.707108 0 -0.707106
    outer loop
      vertex 49.2535 0 1.02745
      vertex 48.9725 13 0.746487
      vertex 49.2535 13 1.02745
    endloop
  endfacet
  facet normal 0.707108 0 -0.707106
    outer loop
      vertex 48.9725 13 0.746487
      vertex 49.2535 0 1.02745
      vertex 48.9725 0 0.746487
    endloop
  endfacet
  facet normal 0.891007 0 -0.453989
    outer loop
      vertex 48.9725 0 0.746487
      vertex 48.7922 13 0.392451
      vertex 48.9725 13 0.746487
    endloop
  endfacet
  facet normal 0.891007 0 -0.453989
    outer loop
      vertex 48.7922 13 0.392451
      vertex 48.9725 0 0.746487
      vertex 48.7922 0 0.392451
    endloop
  endfacet
  facet normal -0.891007 0 -0.453989
    outer loop
      vertex 51.2078 0 0.392451
      vertex 51.0275 13 0.746487
      vertex 51.2078 13 0.392451
    endloop
  endfacet
  facet normal -0.891007 -0 -0.453989
    outer loop
      vertex 51.0275 13 0.746487
      vertex 51.2078 0 0.392451
      vertex 51.0275 0 0.746487
    endloop
  endfacet
  facet normal -0.156435 0 -0.987688
    outer loop
      vertex 50 0 1.27
      vertex 50.3925 13 1.20784
      vertex 50.3925 0 1.20784
    endloop
  endfacet
  facet normal -0.156435 0 -0.987688
    outer loop
      vertex 50.3925 13 1.20784
      vertex 50 0 1.27
      vertex 50 13 1.27
    endloop
  endfacet
  facet normal -0.45399 0 -0.891007
    outer loop
      vertex 50.3925 0 1.20784
      vertex 50.7465 13 1.02745
      vertex 50.7465 0 1.02745
    endloop
  endfacet
  facet normal -0.45399 0 -0.891007
    outer loop
      vertex 50.7465 13 1.02745
      vertex 50.3925 0 1.20784
      vertex 50.3925 13 1.20784
    endloop
  endfacet
  facet normal 0.156435 0 -0.987688
    outer loop
      vertex 49.6075 0 1.20784
      vertex 50 13 1.27
      vertex 50 0 1.27
    endloop
  endfacet
  facet normal 0.156435 0 -0.987688
    outer loop
      vertex 50 13 1.27
      vertex 49.6075 0 1.20784
      vertex 49.6075 13 1.20784
    endloop
  endfacet
  facet normal -0.987687 0 -0.15644
    outer loop
      vertex 51.27 0 0
      vertex 51.2078 13 0.392451
      vertex 51.27 13 0
    endloop
  endfacet
  facet normal -0.987687 -0 -0.15644
    outer loop
      vertex 51.2078 13 0.392451
      vertex 51.27 0 0
      vertex 51.2078 0 0.392451
    endloop
  endfacet
  facet normal 0 0 -1
    outer loop
      vertex 55 0 0
      vertex 52.54 1 0
      vertex 55 1 0
    endloop
  endfacet
  facet normal 0 0 -1
    outer loop
      vertex 51.27 0 0
      vertex 52.54 1 0
      vertex 55 0 0
    endloop
  endfacet
  facet normal 0 0 -1
    outer loop
      vertex 51.27 13 0
      vertex 52.54 1 0
      vertex 51.27 0 0
    endloop
  endfacet
  facet normal 0 0 -1
    outer loop
      vertex 52.54 1 0
      vertex 51.27 13 0
      vertex 52.54 13 0
    endloop
  endfacet
  facet normal 0 0 -1
    outer loop
      vertex 48.73 0 0
      vertex 47.46 1 0
      vertex 48.73 13 0
    endloop
  endfacet
  facet normal 0 0 -1
    outer loop
      vertex 45 0 0
      vertex 47.46 1 0
      vertex 48.73 0 0
    endloop
  endfacet
  facet normal -0 0 -1
    outer loop
      vertex 47.46 1 0
      vertex 45 0 0
      vertex 45 1 0
    endloop
  endfacet
  facet normal -0 0 -1
    outer loop
      vertex 48.73 13 0
      vertex 47.46 1 0
      vertex 47.46 13 0
    endloop
  endfacet
endsolid OpenSCAD_Model
