solid OpenSCAD_Model
  facet normal 0.156434 0 0.987688
    outer loop
      vertex 35 12 2.35
      vertex 35.7262 2 2.23498
      vertex 35.7262 12 2.23498
    endloop
  endfacet
  facet normal 0.156434 0 0.987688
    outer loop
      vertex 35.7262 2 2.23498
      vertex 35 12 2.35
      vertex 35 2 2.35
    endloop
  endfacet
  facet normal 0.45399 0 0.891007
    outer loop
      vertex 35.7262 12 2.23498
      vertex 36.3813 2 1.90119
      vertex 36.3813 12 1.90119
    endloop
  endfacet
  facet normal 0.45399 0 0.891007
    outer loop
      vertex 36.3813 2 1.90119
      vertex 35.7262 12 2.23498
      vertex 35.7262 2 2.23498
    endloop
  endfacet
  facet normal 0 1 0
    outer loop
      vertex 35 12 1.175
      vertex 35 12 2.35
      vertex 35.7262 12 2.23498
    endloop
  endfacet
  facet normal 0 1 0
    outer loop
      vertex 35.3631 12 1.11749
      vertex 35.7262 12 2.23498
      vertex 36.3813 12 1.90119
    endloop
  endfacet
  facet normal 0 1 0
    outer loop
      vertex 35 12 2.35
      vertex 35 12 1.175
      vertex 34.2738 12 2.23498
    endloop
  endfacet
  facet normal 0 1 0
    outer loop
      vertex 35.6906 12 0.950595
      vertex 36.3813 12 1.90119
      vertex 36.9012 12 1.3813
    endloop
  endfacet
  facet normal 0 1 -0
    outer loop
      vertex 34.6369 12 1.11749
      vertex 34.2738 12 2.23498
      vertex 35 12 1.175
    endloop
  endfacet
  facet normal 0 1 0
    outer loop
      vertex 34.2738 12 2.23498
      vertex 34.6369 12 1.11749
      vertex 33.6187 12 1.90119
    endloop
  endfacet
  facet normal 0 1 0
    outer loop
      vertex 35.7262 12 2.23498
      vertex 35.3631 12 1.11749
      vertex 35 12 1.175
    endloop
  endfacet
  facet normal 0 1 0
    outer loop
      vertex 36.3813 12 1.90119
      vertex 35.6906 12 0.950595
      vertex 35.3631 12 1.11749
    endloop
  endfacet
  facet normal 0 1 0
    outer loop
      vertex 35.9506 12 0.690647
      vertex 36.9012 12 1.3813
      vertex 37.235 12 0.72619
    endloop
  endfacet
  facet normal 0 1 0
    outer loop
      vertex 36.9012 12 1.3813
      vertex 35.9506 12 0.690647
      vertex 35.6906 12 0.950595
    endloop
  endfacet
  facet normal 0 1 0
    outer loop
      vertex 37.235 12 0.72619
      vertex 36.1175 12 0.363094
      vertex 35.9506 12 0.690647
    endloop
  endfacet
  facet normal 0 1 0
    outer loop
      vertex 37.35 12 0
      vertex 36.1175 12 0.363094
      vertex 37.235 12 0.72619
    endloop
  endfacet
  facet normal 0 1 0
    outer loop
      vertex 36.1175 12 0.363094
      vertex 37.35 12 0
      vertex 36.175 12 0
    endloop
  endfacet
  facet normal 0 1 -0
    outer loop
      vertex 34.3094 12 0.950595
      vertex 33.6187 12 1.90119
      vertex 34.6369 12 1.11749
    endloop
  endfacet
  facet normal 0 1 0
    outer loop
      vertex 33.6187 12 1.90119
      vertex 34.3094 12 0.950595
      vertex 33.0988 12 1.3813
    endloop
  endfacet
  facet normal 0 1 -0
    outer loop
      vertex 34.0494 12 0.690647
      vertex 33.0988 12 1.3813
      vertex 34.3094 12 0.950595
    endloop
  endfacet
  facet normal 0 1 0
    outer loop
      vertex 33.0988 12 1.3813
      vertex 34.0494 12 0.690647
      vertex 32.765 12 0.72619
    endloop
  endfacet
  facet normal 0 1 -0
    outer loop
      vertex 33.8825 12 0.363094
      vertex 32.765 12 0.72619
      vertex 34.0494 12 0.690647
    endloop
  endfacet
  facet normal 0 1 -0
    outer loop
      vertex 33.825 12 0
      vertex 32.765 12 0.72619
      vertex 33.8825 12 0.363094
    endloop
  endfacet
  facet normal 0 1 0
    outer loop
      vertex 32.765 12 0.72619
      vertex 33.825 12 0
      vertex 32.65 12 0
    endloop
  endfacet
  facet normal -0.707105 0 0.707109
    outer loop
      vertex 33.0988 12 1.3813
      vertex 33.6187 2 1.90119
      vertex 33.6187 12 1.90119
    endloop
  endfacet
  facet normal -0.707105 0 0.707109
    outer loop
      vertex 33.6187 2 1.90119
      vertex 33.0988 12 1.3813
      vertex 33.0988 2 1.3813
    endloop
  endfacet
  facet normal 0.891008 0 0.453987
    outer loop
      vertex 36.9012 12 1.3813
      vertex 37.235 2 0.72619
      vertex 37.235 12 0.72619
    endloop
  endfacet
  facet normal 0.891008 0 0.453987
    outer loop
      vertex 37.235 2 0.72619
      vertex 36.9012 12 1.3813
      vertex 36.9012 2 1.3813
    endloop
  endfacet
  facet normal 0.987688 0 0.156434
    outer loop
      vertex 37.235 12 0.72619
      vertex 37.35 2 0
      vertex 37.35 12 0
    endloop
  endfacet
  facet normal 0.987688 0 0.156434
    outer loop
      vertex 37.35 2 0
      vertex 37.235 12 0.72619
      vertex 37.235 2 0.72619
    endloop
  endfacet
  facet normal -0.987688 0 0.156434
    outer loop
      vertex 32.65 2 0
      vertex 32.765 12 0.72619
      vertex 32.65 12 0
    endloop
  endfacet
  facet normal -0.987688 0 0.156434
    outer loop
      vertex 32.765 12 0.72619
      vertex 32.65 2 0
      vertex 32.765 2 0.72619
    endloop
  endfacet
  facet normal 0.707105 0 0.707109
    outer loop
      vertex 36.3813 12 1.90119
      vertex 36.9012 2 1.3813
      vertex 36.9012 12 1.3813
    endloop
  endfacet
  facet normal 0.707105 0 0.707109
    outer loop
      vertex 36.9012 2 1.3813
      vertex 36.3813 12 1.90119
      vertex 36.3813 2 1.90119
    endloop
  endfacet
  facet normal -0.45399 0 0.891007
    outer loop
      vertex 33.6187 12 1.90119
      vertex 34.2738 2 2.23498
      vertex 34.2738 12 2.23498
    endloop
  endfacet
  facet normal -0.45399 0 0.891007
    outer loop
      vertex 34.2738 2 2.23498
      vertex 33.6187 12 1.90119
      vertex 33.6187 2 1.90119
    endloop
  endfacet
  facet normal 0 -1 0
    outer loop
      vertex 35 0 1.175
      vertex 35 0 5
      vertex 33.4549 0 4.75528
    endloop
  endfacet
  facet normal 0 -1 0
    outer loop
      vertex 34.6369 0 1.11749
      vertex 33.4549 0 4.75528
      vertex 32.0611 0 4.04508
    endloop
  endfacet
  facet normal 0 -1 0
    outer loop
      vertex 35 0 5
      vertex 35 0 1.175
      vertex 36.5451 0 4.75528
    endloop
  endfacet
  facet normal 0 -1 0
    outer loop
      vertex 34.3094 0 0.950595
      vertex 32.0611 0 4.04508
      vertex 30.9549 0 2.93893
    endloop
  endfacet
  facet normal 0 -1 0
    outer loop
      vertex 35.3631 0 1.11749
      vertex 36.5451 0 4.75528
      vertex 35 0 1.175
    endloop
  endfacet
  facet normal 0 -1 0
    outer loop
      vertex 34.0494 0 0.690647
      vertex 30.9549 0 2.93893
      vertex 30.2447 0 1.54508
    endloop
  endfacet
  facet normal 0 -1 -0
    outer loop
      vertex 36.5451 0 4.75528
      vertex 35.3631 0 1.11749
      vertex 37.9389 0 4.04508
    endloop
  endfacet
  facet normal 0 -1 0
    outer loop
      vertex 35.6906 0 0.950595
      vertex 37.9389 0 4.04508
      vertex 35.3631 0 1.11749
    endloop
  endfacet
  facet normal 0 -1 0
    outer loop
      vertex 33.4549 0 4.75528
      vertex 34.6369 0 1.11749
      vertex 35 0 1.175
    endloop
  endfacet
  facet normal 0 -1 0
    outer loop
      vertex 32.0611 0 4.04508
      vertex 34.3094 0 0.950595
      vertex 34.6369 0 1.11749
    endloop
  endfacet
  facet normal 0 -1 0
    outer loop
      vertex 30.9549 0 2.93893
      vertex 34.0494 0 0.690647
      vertex 34.3094 0 0.950595
    endloop
  endfacet
  facet normal 0 -1 0
    outer loop
      vertex 30.2447 0 1.54508
      vertex 33.8825 0 0.363094
      vertex 34.0494 0 0.690647
    endloop
  endfacet
  facet normal 0 -1 0
    outer loop
      vertex 30 0 0
      vertex 33.8825 0 0.363094
      vertex 30.2447 0 1.54508
    endloop
  endfacet
  facet normal 0 -1 0
    outer loop
      vertex 33.8825 0 0.363094
      vertex 30 0 0
      vertex 33.825 0 0
    endloop
  endfacet
  facet normal 0 -1 -0
    outer loop
      vertex 37.9389 0 4.04508
      vertex 35.6906 0 0.950595
      vertex 39.0451 0 2.93893
    endloop
  endfacet
  facet normal 0 -1 0
    outer loop
      vertex 35.9506 0 0.690647
      vertex 39.0451 0 2.93893
      vertex 35.6906 0 0.950595
    endloop
  endfacet
  facet normal 0 -1 -0
    outer loop
      vertex 39.0451 0 2.93893
      vertex 35.9506 0 0.690647
      vertex 39.7553 0 1.54508
    endloop
  endfacet
  facet normal 0 -1 0
    outer loop
      vertex 36.1175 0 0.363094
      vertex 39.7553 0 1.54508
      vertex 35.9506 0 0.690647
    endloop
  endfacet
  facet normal 0 -1 0
    outer loop
      vertex 36.175 0 0
      vertex 39.7553 0 1.54508
      vertex 36.1175 0 0.363094
    endloop
  endfacet
  facet normal 0 -1 -0
    outer loop
      vertex 39.7553 0 1.54508
      vertex 36.175 0 0
      vertex 40 0 0
    endloop
  endfacet
  facet normal -0.156434 0 0.987688
    outer loop
      vertex 34.2738 12 2.23498
      vertex 35 2 2.35
      vertex 35 12 2.35
    endloop
  endfacet
  facet normal -0.156434 0 0.987688
    outer loop
      vertex 35 2 2.35
      vertex 34.2738 12 2.23498
      vertex 34.2738 2 2.23498
    endloop
  endfacet
  facet normal -0.891008 0 0.453987
    outer loop
      vertex 32.765 2 0.72619
      vertex 33.0988 12 1.3813
      vertex 32.765 12 0.72619
    endloop
  endfacet
  facet normal -0.891008 0 0.453987
    outer loop
      vertex 33.0988 12 1.3813
      vertex 32.765 2 0.72619
      vertex 33.0988 2 1.3813
    endloop
  endfacet
  facet normal 2.84994e-008 1 1.79939e-007
    outer loop
      vertex 35 2 5
      vertex 35.7262 2 2.23498
      vertex 35 2 2.35
    endloop
  endfacet
  facet normal -1.08638e-007 1 1.43922e-007
    outer loop
      vertex 35 2 5
      vertex 36.3813 2 1.90119
      vertex 35.7262 2 2.23498
    endloop
  endfacet
  facet normal -6.66628e-008 1 1.62632e-007
    outer loop
      vertex 35 2 5
      vertex 36.9012 2 1.3813
      vertex 36.3813 2 1.90119
    endloop
  endfacet
  facet normal 1.45807e-008 1 2.05316e-007
    outer loop
      vertex 40 2 0
      vertex 36.9012 2 1.3813
      vertex 35 2 5
    endloop
  endfacet
  facet normal 5.40087e-009 1 1.84721e-007
    outer loop
      vertex 40 2 0
      vertex 37.235 2 0.72619
      vertex 36.9012 2 1.3813
    endloop
  endfacet
  facet normal 0 1 1.64157e-007
    outer loop
      vertex 37.235 2 0.72619
      vertex 40 2 0
      vertex 37.35 2 0
    endloop
  endfacet
  facet normal -2.84994e-008 1 1.79939e-007
    outer loop
      vertex 34.2738 2 2.23498
      vertex 35 2 5
      vertex 35 2 2.35
    endloop
  endfacet
  facet normal 1.08638e-007 1 1.43922e-007
    outer loop
      vertex 33.6187 2 1.90119
      vertex 35 2 5
      vertex 34.2738 2 2.23498
    endloop
  endfacet
  facet normal 6.66628e-008 1 1.62632e-007
    outer loop
      vertex 33.0988 2 1.3813
      vertex 35 2 5
      vertex 33.6187 2 1.90119
    endloop
  endfacet
  facet normal -1.45807e-008 1 2.05316e-007
    outer loop
      vertex 33.0988 2 1.3813
      vertex 30 2 0
      vertex 35 2 5
    endloop
  endfacet
  facet normal -5.40087e-009 1 1.84721e-007
    outer loop
      vertex 32.765 2 0.72619
      vertex 30 2 0
      vertex 33.0988 2 1.3813
    endloop
  endfacet
  facet normal -0 1 1.64157e-007
    outer loop
      vertex 30 2 0
      vertex 32.765 2 0.72619
      vertex 32.65 2 0
    endloop
  endfacet
  facet normal 3.58946e-008 1 2.26629e-007
    outer loop
      vertex 40 2 0
      vertex 35 2 5
      vertex 36.5451 2 4.75528
    endloop
  endfacet
  facet normal 4.8068e-007 1 4.8068e-007
    outer loop
      vertex 40 2 0
      vertex 37.9389 2 4.04508
      vertex 39.0451 2 2.93893
    endloop
  endfacet
  facet normal -0.987688 0 0.156434
    outer loop
      vertex 30 0 0
      vertex 30.2447 2 1.54508
      vertex 30 2 0
    endloop
  endfacet
  facet normal -0.987688 0 0.156434
    outer loop
      vertex 30.2447 2 1.54508
      vertex 30 0 0
      vertex 30.2447 0 1.54508
    endloop
  endfacet
  facet normal 0.707107 -0 0.707107
    outer loop
      vertex 37.9389 0 4.04508
      vertex 39.0451 2 2.93893
      vertex 37.9389 2 4.04508
    endloop
  endfacet
  facet normal 0.707107 0 0.707107
    outer loop
      vertex 39.0451 2 2.93893
      vertex 37.9389 0 4.04508
      vertex 39.0451 0 2.93893
    endloop
  endfacet
  facet normal 0.156434 0 0.987688
    outer loop
      vertex 35 2 5
      vertex 36.5451 0 4.75528
      vertex 36.5451 2 4.75528
    endloop
  endfacet
  facet normal 0.156434 0 0.987688
    outer loop
      vertex 36.5451 0 4.75528
      vertex 35 2 5
      vertex 35 0 5
    endloop
  endfacet
  facet normal -1.62249e-007 1 3.18431e-007
    outer loop
      vertex 33.4549 2 4.75528
      vertex 30 2 0
      vertex 32.0611 2 4.04508
    endloop
  endfacet
  facet normal -0.453991 0 0.891006
    outer loop
      vertex 32.0611 2 4.04508
      vertex 33.4549 0 4.75528
      vertex 33.4549 2 4.75528
    endloop
  endfacet
  facet normal -0.453991 0 0.891006
    outer loop
      vertex 33.4549 0 4.75528
      vertex 32.0611 2 4.04508
      vertex 32.0611 0 4.04508
    endloop
  endfacet
  facet normal 0.987688 -0 0.156434
    outer loop
      vertex 39.7553 0 1.54508
      vertex 40 2 0
      vertex 39.7553 2 1.54508
    endloop
  endfacet
  facet normal 0.987688 0 0.156434
    outer loop
      vertex 40 2 0
      vertex 39.7553 0 1.54508
      vertex 40 0 0
    endloop
  endfacet
  facet normal 0.453991 0 0.891006
    outer loop
      vertex 36.5451 2 4.75528
      vertex 37.9389 0 4.04508
      vertex 37.9389 2 4.04508
    endloop
  endfacet
  facet normal 0.453991 0 0.891006
    outer loop
      vertex 37.9389 0 4.04508
      vertex 36.5451 2 4.75528
      vertex 36.5451 0 4.75528
    endloop
  endfacet
  facet normal 1.62249e-007 1 3.18431e-007
    outer loop
      vertex 40 2 0
      vertex 36.5451 2 4.75528
      vertex 37.9389 2 4.04508
    endloop
  endfacet
  facet normal -0.707107 0 0.707107
    outer loop
      vertex 30.9549 0 2.93893
      vertex 32.0611 2 4.04508
      vertex 30.9549 2 2.93893
    endloop
  endfacet
  facet normal -0.707107 0 0.707107
    outer loop
      vertex 32.0611 2 4.04508
      vertex 30.9549 0 2.93893
      vertex 32.0611 0 4.04508
    endloop
  endfacet
  facet normal -4.8068e-007 1 4.8068e-007
    outer loop
      vertex 32.0611 2 4.04508
      vertex 30 2 0
      vertex 30.9549 2 2.93893
    endloop
  endfacet
  facet normal -0.156434 0 0.987688
    outer loop
      vertex 33.4549 2 4.75528
      vertex 35 0 5
      vertex 35 2 5
    endloop
  endfacet
  facet normal -0.156434 0 0.987688
    outer loop
      vertex 35 0 5
      vertex 33.4549 2 4.75528
      vertex 33.4549 0 4.75528
    endloop
  endfacet
  facet normal -3.58946e-008 1 2.26629e-007
    outer loop
      vertex 35 2 5
      vertex 30 2 0
      vertex 33.4549 2 4.75528
    endloop
  endfacet
  facet normal 0.891006 -0 0.453991
    outer loop
      vertex 39.0451 0 2.93893
      vertex 39.7553 2 1.54508
      vertex 39.0451 2 2.93893
    endloop
  endfacet
  facet normal 0.891006 0 0.453991
    outer loop
      vertex 39.7553 2 1.54508
      vertex 39.0451 0 2.93893
      vertex 39.7553 0 1.54508
    endloop
  endfacet
  facet normal 1.75778e-006 1 8.95636e-007
    outer loop
      vertex 40 2 0
      vertex 39.0451 2 2.93893
      vertex 39.7553 2 1.54508
    endloop
  endfacet
  facet normal -0.891006 0 0.453991
    outer loop
      vertex 30.2447 0 1.54508
      vertex 30.9549 2 2.93893
      vertex 30.2447 2 1.54508
    endloop
  endfacet
  facet normal -0.891006 0 0.453991
    outer loop
      vertex 30.9549 2 2.93893
      vertex 30.2447 0 1.54508
      vertex 30.9549 0 2.93893
    endloop
  endfacet
  facet normal -1.75778e-006 1 8.95636e-007
    outer loop
      vertex 30.9549 2 2.93893
      vertex 30 2 0
      vertex 30.2447 2 1.54508
    endloop
  endfacet
  facet normal -0.891006 0 -0.453991
    outer loop
      vertex 36.1175 0 0.363094
      vertex 35.9506 12 0.690647
      vertex 36.1175 12 0.363094
    endloop
  endfacet
  facet normal -0.891006 -0 -0.453991
    outer loop
      vertex 35.9506 12 0.690647
      vertex 36.1175 0 0.363094
      vertex 35.9506 0 0.690647
    endloop
  endfacet
  facet normal 0.707105 0 -0.707108
    outer loop
      vertex 34.0494 0 0.690647
      vertex 34.3094 12 0.950595
      vertex 34.3094 0 0.950595
    endloop
  endfacet
  facet normal 0.707105 0 -0.707108
    outer loop
      vertex 34.3094 12 0.950595
      vertex 34.0494 0 0.690647
      vertex 34.0494 12 0.690647
    endloop
  endfacet
  facet normal 0.987689 0 -0.156429
    outer loop
      vertex 33.8825 0 0.363094
      vertex 33.825 12 0
      vertex 33.8825 12 0.363094
    endloop
  endfacet
  facet normal 0.987689 0 -0.156429
    outer loop
      vertex 33.825 12 0
      vertex 33.8825 0 0.363094
      vertex 33.825 0 0
    endloop
  endfacet
  facet normal -0.156434 0 -0.987688
    outer loop
      vertex 35 0 1.175
      vertex 35.3631 12 1.11749
      vertex 35.3631 0 1.11749
    endloop
  endfacet
  facet normal -0.156434 0 -0.987688
    outer loop
      vertex 35.3631 12 1.11749
      vertex 35 0 1.175
      vertex 35 12 1.175
    endloop
  endfacet
  facet normal -0.707105 0 -0.707108
    outer loop
      vertex 35.6906 0 0.950595
      vertex 35.9506 12 0.690647
      vertex 35.9506 0 0.690647
    endloop
  endfacet
  facet normal -0.707105 0 -0.707108
    outer loop
      vertex 35.9506 12 0.690647
      vertex 35.6906 0 0.950595
      vertex 35.6906 12 0.950595
    endloop
  endfacet
  facet normal 0.453989 0 -0.891007
    outer loop
      vertex 34.3094 0 0.950595
      vertex 34.6369 12 1.11749
      vertex 34.6369 0 1.11749
    endloop
  endfacet
  facet normal 0.453989 0 -0.891007
    outer loop
      vertex 34.6369 12 1.11749
      vertex 34.3094 0 0.950595
      vertex 34.3094 12 0.950595
    endloop
  endfacet
  facet normal 0.891006 0 -0.453991
    outer loop
      vertex 34.0494 0 0.690647
      vertex 33.8825 12 0.363094
      vertex 34.0494 12 0.690647
    endloop
  endfacet
  facet normal 0.891006 0 -0.453991
    outer loop
      vertex 33.8825 12 0.363094
      vertex 34.0494 0 0.690647
      vertex 33.8825 0 0.363094
    endloop
  endfacet
  facet normal -0.987689 0 -0.156429
    outer loop
      vertex 36.175 0 0
      vertex 36.1175 12 0.363094
      vertex 36.175 12 0
    endloop
  endfacet
  facet normal -0.987689 -0 -0.156429
    outer loop
      vertex 36.1175 12 0.363094
      vertex 36.175 0 0
      vertex 36.1175 0 0.363094
    endloop
  endfacet
  facet normal -0.453989 0 -0.891007
    outer loop
      vertex 35.3631 0 1.11749
      vertex 35.6906 12 0.950595
      vertex 35.6906 0 0.950595
    endloop
  endfacet
  facet normal -0.453989 0 -0.891007
    outer loop
      vertex 35.6906 12 0.950595
      vertex 35.3631 0 1.11749
      vertex 35.3631 12 1.11749
    endloop
  endfacet
  facet normal 0.156434 0 -0.987688
    outer loop
      vertex 34.6369 0 1.11749
      vertex 35 12 1.175
      vertex 35 0 1.175
    endloop
  endfacet
  facet normal 0.156434 0 -0.987688
    outer loop
      vertex 35 12 1.175
      vertex 34.6369 0 1.11749
      vertex 34.6369 12 1.11749
    endloop
  endfacet
  facet normal 0 0 -1
    outer loop
      vertex 40 0 0
      vertex 37.35 2 0
      vertex 40 2 0
    endloop
  endfacet
  facet normal 0 0 -1
    outer loop
      vertex 36.175 0 0
      vertex 37.35 2 0
      vertex 40 0 0
    endloop
  endfacet
  facet normal 0 0 -1
    outer loop
      vertex 36.175 12 0
      vertex 37.35 2 0
      vertex 36.175 0 0
    endloop
  endfacet
  facet normal 0 0 -1
    outer loop
      vertex 37.35 2 0
      vertex 36.175 12 0
      vertex 37.35 12 0
    endloop
  endfacet
  facet normal 0 0 -1
    outer loop
      vertex 33.825 0 0
      vertex 32.65 2 0
      vertex 33.825 12 0
    endloop
  endfacet
  facet normal 0 0 -1
    outer loop
      vertex 30 0 0
      vertex 32.65 2 0
      vertex 33.825 0 0
    endloop
  endfacet
  facet normal -0 0 -1
    outer loop
      vertex 32.65 2 0
      vertex 30 0 0
      vertex 30 2 0
    endloop
  endfacet
  facet normal -0 0 -1
    outer loop
      vertex 33.825 12 0
      vertex 32.65 2 0
      vertex 32.65 12 0
    endloop
  endfacet
  facet normal 0.156434 0 0.987688
    outer loop
      vertex 50 12 2.35
      vertex 50.7262 2 2.23498
      vertex 50.7262 12 2.23498
    endloop
  endfacet
  facet normal 0.156434 0 0.987688
    outer loop
      vertex 50.7262 2 2.23498
      vertex 50 12 2.35
      vertex 50 2 2.35
    endloop
  endfacet
  facet normal 0.45399 0 0.891007
    outer loop
      vertex 50.7262 12 2.23498
      vertex 51.3813 2 1.90119
      vertex 51.3813 12 1.90119
    endloop
  endfacet
  facet normal 0.45399 0 0.891007
    outer loop
      vertex 51.3813 2 1.90119
      vertex 50.7262 12 2.23498
      vertex 50.7262 2 2.23498
    endloop
  endfacet
  facet normal 0 1 0
    outer loop
      vertex 50 12 1.175
      vertex 50 12 2.35
      vertex 50.7262 12 2.23498
    endloop
  endfacet
  facet normal 0 1 0
    outer loop
      vertex 50.3631 12 1.11749
      vertex 50.7262 12 2.23498
      vertex 51.3813 12 1.90119
    endloop
  endfacet
  facet normal 0 1 0
    outer loop
      vertex 50 12 2.35
      vertex 50 12 1.175
      vertex 49.2738 12 2.23498
    endloop
  endfacet
  facet normal 0 1 0
    outer loop
      vertex 50.6906 12 0.950595
      vertex 51.3813 12 1.90119
      vertex 51.9012 12 1.3813
    endloop
  endfacet
  facet normal 0 1 -0
    outer loop
      vertex 49.6369 12 1.11749
      vertex 49.2738 12 2.23498
      vertex 50 12 1.175
    endloop
  endfacet
  facet normal 0 1 0
    outer loop
      vertex 49.2738 12 2.23498
      vertex 49.6369 12 1.11749
      vertex 48.6187 12 1.90119
    endloop
  endfacet
  facet normal 0 1 0
    outer loop
      vertex 50.7262 12 2.23498
      vertex 50.3631 12 1.11749
      vertex 50 12 1.175
    endloop
  endfacet
  facet normal 0 1 0
    outer loop
      vertex 51.3813 12 1.90119
      vertex 50.6906 12 0.950595
      vertex 50.3631 12 1.11749
    endloop
  endfacet
  facet normal 0 1 0
    outer loop
      vertex 50.9506 12 0.690647
      vertex 51.9012 12 1.3813
      vertex 52.235 12 0.72619
    endloop
  endfacet
  facet normal 0 1 0
    outer loop
      vertex 51.9012 12 1.3813
      vertex 50.9506 12 0.690647
      vertex 50.6906 12 0.950595
    endloop
  endfacet
  facet normal 0 1 0
    outer loop
      vertex 52.235 12 0.72619
      vertex 51.1175 12 0.363094
      vertex 50.9506 12 0.690647
    endloop
  endfacet
  facet normal 0 1 0
    outer loop
      vertex 52.35 12 0
      vertex 51.1175 12 0.363094
      vertex 52.235 12 0.72619
    endloop
  endfacet
  facet normal 0 1 0
    outer loop
      vertex 51.1175 12 0.363094
      vertex 52.35 12 0
      vertex 51.175 12 0
    endloop
  endfacet
  facet normal 0 1 -0
    outer loop
      vertex 49.3094 12 0.950595
      vertex 48.6187 12 1.90119
      vertex 49.6369 12 1.11749
    endloop
  endfacet
  facet normal 0 1 0
    outer loop
      vertex 48.6187 12 1.90119
      vertex 49.3094 12 0.950595
      vertex 48.0988 12 1.3813
    endloop
  endfacet
  facet normal 0 1 -0
    outer loop
      vertex 49.0494 12 0.690647
      vertex 48.0988 12 1.3813
      vertex 49.3094 12 0.950595
    endloop
  endfacet
  facet normal 0 1 0
    outer loop
      vertex 48.0988 12 1.3813
      vertex 49.0494 12 0.690647
      vertex 47.765 12 0.72619
    endloop
  endfacet
  facet normal 0 1 -0
    outer loop
      vertex 48.8825 12 0.363094
      vertex 47.765 12 0.72619
      vertex 49.0494 12 0.690647
    endloop
  endfacet
  facet normal 0 1 -0
    outer loop
      vertex 48.825 12 0
      vertex 47.765 12 0.72619
      vertex 48.8825 12 0.363094
    endloop
  endfacet
  facet normal 0 1 0
    outer loop
      vertex 47.765 12 0.72619
      vertex 48.825 12 0
      vertex 47.65 12 0
    endloop
  endfacet
  facet normal -0.707105 0 0.707109
    outer loop
      vertex 48.0988 12 1.3813
      vertex 48.6187 2 1.90119
      vertex 48.6187 12 1.90119
    endloop
  endfacet
  facet normal -0.707105 0 0.707109
    outer loop
      vertex 48.6187 2 1.90119
      vertex 48.0988 12 1.3813
      vertex 48.0988 2 1.3813
    endloop
  endfacet
  facet normal 0.891008 0 0.453987
    outer loop
      vertex 51.9012 12 1.3813
      vertex 52.235 2 0.72619
      vertex 52.235 12 0.72619
    endloop
  endfacet
  facet normal 0.891008 0 0.453987
    outer loop
      vertex 52.235 2 0.72619
      vertex 51.9012 12 1.3813
      vertex 51.9012 2 1.3813
    endloop
  endfacet
  facet normal 0.987688 0 0.156434
    outer loop
      vertex 52.235 12 0.72619
      vertex 52.35 2 0
      vertex 52.35 12 0
    endloop
  endfacet
  facet normal 0.987688 0 0.156434
    outer loop
      vertex 52.35 2 0
      vertex 52.235 12 0.72619
      vertex 52.235 2 0.72619
    endloop
  endfacet
  facet normal -0.987688 0 0.156434
    outer loop
      vertex 47.65 2 0
      vertex 47.765 12 0.72619
      vertex 47.65 12 0
    endloop
  endfacet
  facet normal -0.987688 0 0.156434
    outer loop
      vertex 47.765 12 0.72619
      vertex 47.65 2 0
      vertex 47.765 2 0.72619
    endloop
  endfacet
  facet normal 0.707105 0 0.707109
    outer loop
      vertex 51.3813 12 1.90119
      vertex 51.9012 2 1.3813
      vertex 51.9012 12 1.3813
    endloop
  endfacet
  facet normal 0.707105 0 0.707109
    outer loop
      vertex 51.9012 2 1.3813
      vertex 51.3813 12 1.90119
      vertex 51.3813 2 1.90119
    endloop
  endfacet
  facet normal -0.45399 0 0.891007
    outer loop
      vertex 48.6187 12 1.90119
      vertex 49.2738 2 2.23498
      vertex 49.2738 12 2.23498
    endloop
  endfacet
  facet normal -0.45399 0 0.891007
    outer loop
      vertex 49.2738 2 2.23498
      vertex 48.6187 12 1.90119
      vertex 48.6187 2 1.90119
    endloop
  endfacet
  facet normal 0 -1 0
    outer loop
      vertex 50 0 1.175
      vertex 50 0 5
      vertex 48.4549 0 4.75528
    endloop
  endfacet
  facet normal 0 -1 0
    outer loop
      vertex 49.6369 0 1.11749
      vertex 48.4549 0 4.75528
      vertex 47.0611 0 4.04508
    endloop
  endfacet
  facet normal 0 -1 0
    outer loop
      vertex 50 0 5
      vertex 50 0 1.175
      vertex 51.5451 0 4.75528
    endloop
  endfacet
  facet normal 0 -1 0
    outer loop
      vertex 49.3094 0 0.950595
      vertex 47.0611 0 4.04508
      vertex 45.9549 0 2.93893
    endloop
  endfacet
  facet normal 0 -1 0
    outer loop
      vertex 50.3631 0 1.11749
      vertex 51.5451 0 4.75528
      vertex 50 0 1.175
    endloop
  endfacet
  facet normal 0 -1 0
    outer loop
      vertex 49.0494 0 0.690647
      vertex 45.9549 0 2.93893
      vertex 45.2447 0 1.54508
    endloop
  endfacet
  facet normal 0 -1 -0
    outer loop
      vertex 51.5451 0 4.75528
      vertex 50.3631 0 1.11749
      vertex 52.9389 0 4.04508
    endloop
  endfacet
  facet normal 0 -1 0
    outer loop
      vertex 50.6906 0 0.950595
      vertex 52.9389 0 4.04508
      vertex 50.3631 0 1.11749
    endloop
  endfacet
  facet normal 0 -1 0
    outer loop
      vertex 48.4549 0 4.75528
      vertex 49.6369 0 1.11749
      vertex 50 0 1.175
    endloop
  endfacet
  facet normal 0 -1 0
    outer loop
      vertex 47.0611 0 4.04508
      vertex 49.3094 0 0.950595
      vertex 49.6369 0 1.11749
    endloop
  endfacet
  facet normal 0 -1 0
    outer loop
      vertex 45.9549 0 2.93893
      vertex 49.0494 0 0.690647
      vertex 49.3094 0 0.950595
    endloop
  endfacet
  facet normal 0 -1 0
    outer loop
      vertex 45.2447 0 1.54508
      vertex 48.8825 0 0.363094
      vertex 49.0494 0 0.690647
    endloop
  endfacet
  facet normal 0 -1 0
    outer loop
      vertex 45 0 0
      vertex 48.8825 0 0.363094
      vertex 45.2447 0 1.54508
    endloop
  endfacet
  facet normal 0 -1 0
    outer loop
      vertex 48.8825 0 0.363094
      vertex 45 0 0
      vertex 48.825 0 0
    endloop
  endfacet
  facet normal 0 -1 -0
    outer loop
      vertex 52.9389 0 4.04508
      vertex 50.6906 0 0.950595
      vertex 54.0451 0 2.93893
    endloop
  endfacet
  facet normal 0 -1 0
    outer loop
      vertex 50.9506 0 0.690647
      vertex 54.0451 0 2.93893
      vertex 50.6906 0 0.950595
    endloop
  endfacet
  facet normal 0 -1 -0
    outer loop
      vertex 54.0451 0 2.93893
      vertex 50.9506 0 0.690647
      vertex 54.7553 0 1.54508
    endloop
  endfacet
  facet normal 0 -1 0
    outer loop
      vertex 51.1175 0 0.363094
      vertex 54.7553 0 1.54508
      vertex 50.9506 0 0.690647
    endloop
  endfacet
  facet normal 0 -1 0
    outer loop
      vertex 51.175 0 0
      vertex 54.7553 0 1.54508
      vertex 51.1175 0 0.363094
    endloop
  endfacet
  facet normal 0 -1 -0
    outer loop
      vertex 54.7553 0 1.54508
      vertex 51.175 0 0
      vertex 55 0 0
    endloop
  endfacet
  facet normal -0.156434 0 0.987688
    outer loop
      vertex 49.2738 12 2.23498
      vertex 50 2 2.35
      vertex 50 12 2.35
    endloop
  endfacet
  facet normal -0.156434 0 0.987688
    outer loop
      vertex 50 2 2.35
      vertex 49.2738 12 2.23498
      vertex 49.2738 2 2.23498
    endloop
  endfacet
  facet normal -0.891008 0 0.453987
    outer loop
      vertex 47.765 2 0.72619
      vertex 48.0988 12 1.3813
      vertex 47.765 12 0.72619
    endloop
  endfacet
  facet normal -0.891008 0 0.453987
    outer loop
      vertex 48.0988 12 1.3813
      vertex 47.765 2 0.72619
      vertex 48.0988 2 1.3813
    endloop
  endfacet
  facet normal 2.84994e-008 1 1.79939e-007
    outer loop
      vertex 50 2 5
      vertex 50.7262 2 2.23498
      vertex 50 2 2.35
    endloop
  endfacet
  facet normal -1.08638e-007 1 1.43922e-007
    outer loop
      vertex 50 2 5
      vertex 51.3813 2 1.90119
      vertex 50.7262 2 2.23498
    endloop
  endfacet
  facet normal -6.66628e-008 1 1.62632e-007
    outer loop
      vertex 50 2 5
      vertex 51.9012 2 1.3813
      vertex 51.3813 2 1.90119
    endloop
  endfacet
  facet normal 1.45807e-008 1 2.05316e-007
    outer loop
      vertex 55 2 0
      vertex 51.9012 2 1.3813
      vertex 50 2 5
    endloop
  endfacet
  facet normal 5.40087e-009 1 1.84721e-007
    outer loop
      vertex 55 2 0
      vertex 52.235 2 0.72619
      vertex 51.9012 2 1.3813
    endloop
  endfacet
  facet normal 0 1 1.64157e-007
    outer loop
      vertex 52.235 2 0.72619
      vertex 55 2 0
      vertex 52.35 2 0
    endloop
  endfacet
  facet normal -2.84994e-008 1 1.79939e-007
    outer loop
      vertex 49.2738 2 2.23498
      vertex 50 2 5
      vertex 50 2 2.35
    endloop
  endfacet
  facet normal 1.08638e-007 1 1.43922e-007
    outer loop
      vertex 48.6187 2 1.90119
      vertex 50 2 5
      vertex 49.2738 2 2.23498
    endloop
  endfacet
  facet normal 6.66628e-008 1 1.62632e-007
    outer loop
      vertex 48.0988 2 1.3813
      vertex 50 2 5
      vertex 48.6187 2 1.90119
    endloop
  endfacet
  facet normal -1.45807e-008 1 2.05316e-007
    outer loop
      vertex 48.0988 2 1.3813
      vertex 45 2 0
      vertex 50 2 5
    endloop
  endfacet
  facet normal -5.40087e-009 1 1.84721e-007
    outer loop
      vertex 47.765 2 0.72619
      vertex 45 2 0
      vertex 48.0988 2 1.3813
    endloop
  endfacet
  facet normal -0 1 1.64157e-007
    outer loop
      vertex 45 2 0
      vertex 47.765 2 0.72619
      vertex 47.65 2 0
    endloop
  endfacet
  facet normal 3.58946e-008 1 2.26629e-007
    outer loop
      vertex 55 2 0
      vertex 50 2 5
      vertex 51.5451 2 4.75528
    endloop
  endfacet
  facet normal 4.8068e-007 1 4.8068e-007
    outer loop
      vertex 55 2 0
      vertex 52.9389 2 4.04508
      vertex 54.0451 2 2.93893
    endloop
  endfacet
  facet normal -0.987688 0 0.156434
    outer loop
      vertex 45 0 0
      vertex 45.2447 2 1.54508
      vertex 45 2 0
    endloop
  endfacet
  facet normal -0.987688 0 0.156434
    outer loop
      vertex 45.2447 2 1.54508
      vertex 45 0 0
      vertex 45.2447 0 1.54508
    endloop
  endfacet
  facet normal 0.707107 -0 0.707107
    outer loop
      vertex 52.9389 0 4.04508
      vertex 54.0451 2 2.93893
      vertex 52.9389 2 4.04508
    endloop
  endfacet
  facet normal 0.707107 0 0.707107
    outer loop
      vertex 54.0451 2 2.93893
      vertex 52.9389 0 4.04508
      vertex 54.0451 0 2.93893
    endloop
  endfacet
  facet normal 0.156434 0 0.987688
    outer loop
      vertex 50 2 5
      vertex 51.5451 0 4.75528
      vertex 51.5451 2 4.75528
    endloop
  endfacet
  facet normal 0.156434 0 0.987688
    outer loop
      vertex 51.5451 0 4.75528
      vertex 50 2 5
      vertex 50 0 5
    endloop
  endfacet
  facet normal -1.62249e-007 1 3.18431e-007
    outer loop
      vertex 48.4549 2 4.75528
      vertex 45 2 0
      vertex 47.0611 2 4.04508
    endloop
  endfacet
  facet normal -0.453991 0 0.891006
    outer loop
      vertex 47.0611 2 4.04508
      vertex 48.4549 0 4.75528
      vertex 48.4549 2 4.75528
    endloop
  endfacet
  facet normal -0.453991 0 0.891006
    outer loop
      vertex 48.4549 0 4.75528
      vertex 47.0611 2 4.04508
      vertex 47.0611 0 4.04508
    endloop
  endfacet
  facet normal 0.987688 -0 0.156434
    outer loop
      vertex 54.7553 0 1.54508
      vertex 55 2 0
      vertex 54.7553 2 1.54508
    endloop
  endfacet
  facet normal 0.987688 0 0.156434
    outer loop
      vertex 55 2 0
      vertex 54.7553 0 1.54508
      vertex 55 0 0
    endloop
  endfacet
  facet normal 0.453991 0 0.891006
    outer loop
      vertex 51.5451 2 4.75528
      vertex 52.9389 0 4.04508
      vertex 52.9389 2 4.04508
    endloop
  endfacet
  facet normal 0.453991 0 0.891006
    outer loop
      vertex 52.9389 0 4.04508
      vertex 51.5451 2 4.75528
      vertex 51.5451 0 4.75528
    endloop
  endfacet
  facet normal 1.62249e-007 1 3.18431e-007
    outer loop
      vertex 55 2 0
      vertex 51.5451 2 4.75528
      vertex 52.9389 2 4.04508
    endloop
  endfacet
  facet normal -0.707107 0 0.707107
    outer loop
      vertex 45.9549 0 2.93893
      vertex 47.0611 2 4.04508
      vertex 45.9549 2 2.93893
    endloop
  endfacet
  facet normal -0.707107 0 0.707107
    outer loop
      vertex 47.0611 2 4.04508
      vertex 45.9549 0 2.93893
      vertex 47.0611 0 4.04508
    endloop
  endfacet
  facet normal -4.8068e-007 1 4.8068e-007
    outer loop
      vertex 47.0611 2 4.04508
      vertex 45 2 0
      vertex 45.9549 2 2.93893
    endloop
  endfacet
  facet normal -0.156434 0 0.987688
    outer loop
      vertex 48.4549 2 4.75528
      vertex 50 0 5
      vertex 50 2 5
    endloop
  endfacet
  facet normal -0.156434 0 0.987688
    outer loop
      vertex 50 0 5
      vertex 48.4549 2 4.75528
      vertex 48.4549 0 4.75528
    endloop
  endfacet
  facet normal -3.58946e-008 1 2.26629e-007
    outer loop
      vertex 50 2 5
      vertex 45 2 0
      vertex 48.4549 2 4.75528
    endloop
  endfacet
  facet normal 0.891006 -0 0.453991
    outer loop
      vertex 54.0451 0 2.93893
      vertex 54.7553 2 1.54508
      vertex 54.0451 2 2.93893
    endloop
  endfacet
  facet normal 0.891006 0 0.453991
    outer loop
      vertex 54.7553 2 1.54508
      vertex 54.0451 0 2.93893
      vertex 54.7553 0 1.54508
    endloop
  endfacet
  facet normal 1.75778e-006 1 8.95636e-007
    outer loop
      vertex 55 2 0
      vertex 54.0451 2 2.93893
      vertex 54.7553 2 1.54508
    endloop
  endfacet
  facet normal -0.891006 0 0.453991
    outer loop
      vertex 45.2447 0 1.54508
      vertex 45.9549 2 2.93893
      vertex 45.2447 2 1.54508
    endloop
  endfacet
  facet normal -0.891006 0 0.453991
    outer loop
      vertex 45.9549 2 2.93893
      vertex 45.2447 0 1.54508
      vertex 45.9549 0 2.93893
    endloop
  endfacet
  facet normal -1.75778e-006 1 8.95636e-007
    outer loop
      vertex 45.9549 2 2.93893
      vertex 45 2 0
      vertex 45.2447 2 1.54508
    endloop
  endfacet
  facet normal -0.891006 0 -0.453991
    outer loop
      vertex 51.1175 0 0.363094
      vertex 50.9506 12 0.690647
      vertex 51.1175 12 0.363094
    endloop
  endfacet
  facet normal -0.891006 -0 -0.453991
    outer loop
      vertex 50.9506 12 0.690647
      vertex 51.1175 0 0.363094
      vertex 50.9506 0 0.690647
    endloop
  endfacet
  facet normal 0.707105 0 -0.707108
    outer loop
      vertex 49.0494 0 0.690647
      vertex 49.3094 12 0.950595
      vertex 49.3094 0 0.950595
    endloop
  endfacet
  facet normal 0.707105 0 -0.707108
    outer loop
      vertex 49.3094 12 0.950595
      vertex 49.0494 0 0.690647
      vertex 49.0494 12 0.690647
    endloop
  endfacet
  facet normal 0.987689 0 -0.156429
    outer loop
      vertex 48.8825 0 0.363094
      vertex 48.825 12 0
      vertex 48.8825 12 0.363094
    endloop
  endfacet
  facet normal 0.987689 0 -0.156429
    outer loop
      vertex 48.825 12 0
      vertex 48.8825 0 0.363094
      vertex 48.825 0 0
    endloop
  endfacet
  facet normal -0.156434 0 -0.987688
    outer loop
      vertex 50 0 1.175
      vertex 50.3631 12 1.11749
      vertex 50.3631 0 1.11749
    endloop
  endfacet
  facet normal -0.156434 0 -0.987688
    outer loop
      vertex 50.3631 12 1.11749
      vertex 50 0 1.175
      vertex 50 12 1.175
    endloop
  endfacet
  facet normal -0.707105 0 -0.707108
    outer loop
      vertex 50.6906 0 0.950595
      vertex 50.9506 12 0.690647
      vertex 50.9506 0 0.690647
    endloop
  endfacet
  facet normal -0.707105 0 -0.707108
    outer loop
      vertex 50.9506 12 0.690647
      vertex 50.6906 0 0.950595
      vertex 50.6906 12 0.950595
    endloop
  endfacet
  facet normal 0.453989 0 -0.891007
    outer loop
      vertex 49.3094 0 0.950595
      vertex 49.6369 12 1.11749
      vertex 49.6369 0 1.11749
    endloop
  endfacet
  facet normal 0.453989 0 -0.891007
    outer loop
      vertex 49.6369 12 1.11749
      vertex 49.3094 0 0.950595
      vertex 49.3094 12 0.950595
    endloop
  endfacet
  facet normal 0.891006 0 -0.453991
    outer loop
      vertex 49.0494 0 0.690647
      vertex 48.8825 12 0.363094
      vertex 49.0494 12 0.690647
    endloop
  endfacet
  facet normal 0.891006 0 -0.453991
    outer loop
      vertex 48.8825 12 0.363094
      vertex 49.0494 0 0.690647
      vertex 48.8825 0 0.363094
    endloop
  endfacet
  facet normal -0.987689 0 -0.156429
    outer loop
      vertex 51.175 0 0
      vertex 51.1175 12 0.363094
      vertex 51.175 12 0
    endloop
  endfacet
  facet normal -0.987689 -0 -0.156429
    outer loop
      vertex 51.1175 12 0.363094
      vertex 51.175 0 0
      vertex 51.1175 0 0.363094
    endloop
  endfacet
  facet normal -0.453989 0 -0.891007
    outer loop
      vertex 50.3631 0 1.11749
      vertex 50.6906 12 0.950595
      vertex 50.6906 0 0.950595
    endloop
  endfacet
  facet normal -0.453989 0 -0.891007
    outer loop
      vertex 50.6906 12 0.950595
      vertex 50.3631 0 1.11749
      vertex 50.3631 12 1.11749
    endloop
  endfacet
  facet normal 0.156434 0 -0.987688
    outer loop
      vertex 49.6369 0 1.11749
      vertex 50 12 1.175
      vertex 50 0 1.175
    endloop
  endfacet
  facet normal 0.156434 0 -0.987688
    outer loop
      vertex 50 12 1.175
      vertex 49.6369 0 1.11749
      vertex 49.6369 12 1.11749
    endloop
  endfacet
  facet normal 0 0 -1
    outer loop
      vertex 55 0 0
      vertex 52.35 2 0
      vertex 55 2 0
    endloop
  endfacet
  facet normal 0 0 -1
    outer loop
      vertex 51.175 0 0
      vertex 52.35 2 0
      vertex 55 0 0
    endloop
  endfacet
  facet normal 0 0 -1
    outer loop
      vertex 51.175 12 0
      vertex 52.35 2 0
      vertex 51.175 0 0
    endloop
  endfacet
  facet normal 0 0 -1
    outer loop
      vertex 52.35 2 0
      vertex 51.175 12 0
      vertex 52.35 12 0
    endloop
  endfacet
  facet normal 0 0 -1
    outer loop
      vertex 48.825 0 0
      vertex 47.65 2 0
      vertex 48.825 12 0
    endloop
  endfacet
  facet normal 0 0 -1
    outer loop
      vertex 45 0 0
      vertex 47.65 2 0
      vertex 48.825 0 0
    endloop
  endfacet
  facet normal -0 0 -1
    outer loop
      vertex 47.65 2 0
      vertex 45 0 0
      vertex 45 2 0
    endloop
  endfacet
  facet normal -0 0 -1
    outer loop
      vertex 48.825 12 0
      vertex 47.65 2 0
      vertex 47.65 12 0
    endloop
  endfacet
  facet normal -0.156434 0 0.987688
    outer loop
      vertex 4.63691 14 1.11749
      vertex 5 2 1.175
      vertex 5 14 1.175
    endloop
  endfacet
  facet normal -0.156434 0 0.987688
    outer loop
      vertex 5 2 1.175
      vertex 4.63691 14 1.11749
      vertex 4.63691 2 1.11749
    endloop
  endfacet
  facet normal 0 -1 0
    outer loop
      vertex 3.45492 0 4.75528
      vertex 6.54508 0 4.75528
      vertex 5 0 5
    endloop
  endfacet
  facet normal 0 -1 0
    outer loop
      vertex 2.06107 0 4.04508
      vertex 6.54508 0 4.75528
      vertex 3.45492 0 4.75528
    endloop
  endfacet
  facet normal 0 -1 0
    outer loop
      vertex 2.06107 0 4.04508
      vertex 7.93893 0 4.04508
      vertex 6.54508 0 4.75528
    endloop
  endfacet
  facet normal 0 -1 0
    outer loop
      vertex 0.954915 0 2.93893
      vertex 7.93893 0 4.04508
      vertex 2.06107 0 4.04508
    endloop
  endfacet
  facet normal 0 -1 0
    outer loop
      vertex 0.954915 0 2.93893
      vertex 9.04508 0 2.93893
      vertex 7.93893 0 4.04508
    endloop
  endfacet
  facet normal 0 -1 0
    outer loop
      vertex 0.244718 0 1.54508
      vertex 9.04508 0 2.93893
      vertex 0.954915 0 2.93893
    endloop
  endfacet
  facet normal 0 -1 0
    outer loop
      vertex 0.244718 0 1.54508
      vertex 9.75528 0 1.54508
      vertex 9.04508 0 2.93893
    endloop
  endfacet
  facet normal 0 -1 0
    outer loop
      vertex 0 0 0
      vertex 9.75528 0 1.54508
      vertex 0.244718 0 1.54508
    endloop
  endfacet
  facet normal 0 -1 -0
    outer loop
      vertex 9.75528 0 1.54508
      vertex 0 0 0
      vertex 10 0 0
    endloop
  endfacet
  facet normal 0.891007 -0 0.453989
    outer loop
      vertex 5.95059 2 0.690647
      vertex 6.11749 14 0.363094
      vertex 5.95059 14 0.690647
    endloop
  endfacet
  facet normal 0.891007 0 0.453989
    outer loop
      vertex 6.11749 14 0.363094
      vertex 5.95059 2 0.690647
      vertex 6.11749 2 0.363094
    endloop
  endfacet
  facet normal -0.707107 0 0.707107
    outer loop
      vertex 4.04941 2 0.690647
      vertex 4.30935 14 0.950595
      vertex 4.04941 14 0.690647
    endloop
  endfacet
  facet normal -0.707107 0 0.707107
    outer loop
      vertex 4.30935 14 0.950595
      vertex 4.04941 2 0.690647
      vertex 4.30935 2 0.950595
    endloop
  endfacet
  facet normal -0.987688 0 0.156434
    outer loop
      vertex 3.825 2 0
      vertex 3.88251 14 0.363094
      vertex 3.825 14 0
    endloop
  endfacet
  facet normal -0.987688 0 0.156434
    outer loop
      vertex 3.88251 14 0.363094
      vertex 3.825 2 0
      vertex 3.88251 2 0.363094
    endloop
  endfacet
  facet normal 0 1 0
    outer loop
      vertex 5.36309 14 1.11749
      vertex 4.63691 14 1.11749
      vertex 5 14 1.175
    endloop
  endfacet
  facet normal 0 1 0
    outer loop
      vertex 5.69065 14 0.950595
      vertex 4.63691 14 1.11749
      vertex 5.36309 14 1.11749
    endloop
  endfacet
  facet normal 0 1 0
    outer loop
      vertex 5.69065 14 0.950595
      vertex 4.30935 14 0.950595
      vertex 4.63691 14 1.11749
    endloop
  endfacet
  facet normal 0 1 0
    outer loop
      vertex 5.95059 14 0.690647
      vertex 4.30935 14 0.950595
      vertex 5.69065 14 0.950595
    endloop
  endfacet
  facet normal 0 1 0
    outer loop
      vertex 5.95059 14 0.690647
      vertex 4.04941 14 0.690647
      vertex 4.30935 14 0.950595
    endloop
  endfacet
  facet normal 0 1 0
    outer loop
      vertex 6.11749 14 0.363094
      vertex 4.04941 14 0.690647
      vertex 5.95059 14 0.690647
    endloop
  endfacet
  facet normal 0 1 0
    outer loop
      vertex 6.11749 14 0.363094
      vertex 3.88251 14 0.363094
      vertex 4.04941 14 0.690647
    endloop
  endfacet
  facet normal 0 1 0
    outer loop
      vertex 6.175 14 0
      vertex 3.88251 14 0.363094
      vertex 6.11749 14 0.363094
    endloop
  endfacet
  facet normal 0 1 0
    outer loop
      vertex 3.88251 14 0.363094
      vertex 6.175 14 0
      vertex 3.825 14 0
    endloop
  endfacet
  facet normal 0.987688 0 0.156434
    outer loop
      vertex 6.11749 14 0.363094
      vertex 6.175 2 0
      vertex 6.175 14 0
    endloop
  endfacet
  facet normal 0.987688 0 0.156434
    outer loop
      vertex 6.175 2 0
      vertex 6.11749 14 0.363094
      vertex 6.11749 2 0.363094
    endloop
  endfacet
  facet normal 0.156434 0 0.987688
    outer loop
      vertex 5 14 1.175
      vertex 5.36309 2 1.11749
      vertex 5.36309 14 1.11749
    endloop
  endfacet
  facet normal 0.156434 0 0.987688
    outer loop
      vertex 5.36309 2 1.11749
      vertex 5 14 1.175
      vertex 5 2 1.175
    endloop
  endfacet
  facet normal 0.707107 0 0.707107
    outer loop
      vertex 5.69065 14 0.950595
      vertex 5.95059 2 0.690647
      vertex 5.95059 14 0.690647
    endloop
  endfacet
  facet normal 0.707107 0 0.707107
    outer loop
      vertex 5.95059 2 0.690647
      vertex 5.69065 14 0.950595
      vertex 5.69065 2 0.950595
    endloop
  endfacet
  facet normal -0.453989 0 0.891007
    outer loop
      vertex 4.30935 14 0.950595
      vertex 4.63691 2 1.11749
      vertex 4.63691 14 1.11749
    endloop
  endfacet
  facet normal -0.453989 0 0.891007
    outer loop
      vertex 4.63691 2 1.11749
      vertex 4.30935 14 0.950595
      vertex 4.30935 2 0.950595
    endloop
  endfacet
  facet normal -0.891007 0 0.453989
    outer loop
      vertex 3.88251 2 0.363094
      vertex 4.04941 14 0.690647
      vertex 3.88251 14 0.363094
    endloop
  endfacet
  facet normal -0.891007 0 0.453989
    outer loop
      vertex 4.04941 14 0.690647
      vertex 3.88251 2 0.363094
      vertex 4.04941 2 0.690647
    endloop
  endfacet
  facet normal 0.453989 0 0.891007
    outer loop
      vertex 5.36309 14 1.11749
      vertex 5.69065 2 0.950595
      vertex 5.69065 14 0.950595
    endloop
  endfacet
  facet normal 0.453989 0 0.891007
    outer loop
      vertex 5.69065 2 0.950595
      vertex 5.36309 14 1.11749
      vertex 5.36309 2 1.11749
    endloop
  endfacet
  facet normal 2.96171e-008 1 1.86995e-007
    outer loop
      vertex 5 2 5
      vertex 5.36309 2 1.11749
      vertex 5 2 1.175
    endloop
  endfacet
  facet normal 9.85637e-008 1 1.93443e-007
    outer loop
      vertex 5 2 5
      vertex 5.69065 2 0.950595
      vertex 5.36309 2 1.11749
    endloop
  endfacet
  facet normal -3.39935e-007 1 1.18655e-007
    outer loop
      vertex 5 2 5
      vertex 5.95059 2 0.690647
      vertex 5.69065 2 0.950595
    endloop
  endfacet
  facet normal 3.72792e-009 1 1.94463e-007
    outer loop
      vertex 10 2 0
      vertex 5.95059 2 0.690647
      vertex 5 2 5
    endloop
  endfacet
  facet normal -3.22405e-008 1 -1.64273e-008
    outer loop
      vertex 5.95059 2 0.690647
      vertex 10 2 0
      vertex 6.11749 2 0.363094
    endloop
  endfacet
  facet normal 0 1 3.28315e-007
    outer loop
      vertex 6.11749 2 0.363094
      vertex 10 2 0
      vertex 6.175 2 0
    endloop
  endfacet
  facet normal -2.96171e-008 1 1.86995e-007
    outer loop
      vertex 4.63691 2 1.11749
      vertex 5 2 5
      vertex 5 2 1.175
    endloop
  endfacet
  facet normal -9.85637e-008 1 1.93443e-007
    outer loop
      vertex 4.30935 2 0.950595
      vertex 5 2 5
      vertex 4.63691 2 1.11749
    endloop
  endfacet
  facet normal 3.39935e-007 1 1.18655e-007
    outer loop
      vertex 4.04941 2 0.690647
      vertex 5 2 5
      vertex 4.30935 2 0.950595
    endloop
  endfacet
  facet normal 3.22405e-008 1 -1.64273e-008
    outer loop
      vertex 0 2 0
      vertex 4.04941 2 0.690647
      vertex 3.88251 2 0.363094
    endloop
  endfacet
  facet normal -3.72792e-009 1 1.94463e-007
    outer loop
      vertex 4.04941 2 0.690647
      vertex 0 2 0
      vertex 5 2 5
    endloop
  endfacet
  facet normal -0 1 3.28315e-007
    outer loop
      vertex 0 2 0
      vertex 3.88251 2 0.363094
      vertex 3.825 2 0
    endloop
  endfacet
  facet normal 3.58946e-008 1 2.26629e-007
    outer loop
      vertex 10 2 0
      vertex 5 2 5
      vertex 6.54508 2 4.75528
    endloop
  endfacet
  facet normal 4.8068e-007 1 4.8068e-007
    outer loop
      vertex 10 2 0
      vertex 7.93893 2 4.04508
      vertex 9.04508 2 2.93893
    endloop
  endfacet
  facet normal -0.987688 0 0.156435
    outer loop
      vertex 0 0 0
      vertex 0.244718 2 1.54508
      vertex 0 2 0
    endloop
  endfacet
  facet normal -0.987688 0 0.156435
    outer loop
      vertex 0.244718 2 1.54508
      vertex 0 0 0
      vertex 0.244718 0 1.54508
    endloop
  endfacet
  facet normal 0.707107 -0 0.707107
    outer loop
      vertex 7.93893 0 4.04508
      vertex 9.04508 2 2.93893
      vertex 7.93893 2 4.04508
    endloop
  endfacet
  facet normal 0.707107 0 0.707107
    outer loop
      vertex 9.04508 2 2.93893
      vertex 7.93893 0 4.04508
      vertex 9.04508 0 2.93893
    endloop
  endfacet
  facet normal 0.156435 0 0.987688
    outer loop
      vertex 5 2 5
      vertex 6.54508 0 4.75528
      vertex 6.54508 2 4.75528
    endloop
  endfacet
  facet normal 0.156435 0 0.987688
    outer loop
      vertex 6.54508 0 4.75528
      vertex 5 2 5
      vertex 5 0 5
    endloop
  endfacet
  facet normal -1.62249e-007 1 3.18431e-007
    outer loop
      vertex 3.45492 2 4.75528
      vertex 0 2 0
      vertex 2.06107 2 4.04508
    endloop
  endfacet
  facet normal -0.453991 0 0.891006
    outer loop
      vertex 2.06107 2 4.04508
      vertex 3.45492 0 4.75528
      vertex 3.45492 2 4.75528
    endloop
  endfacet
  facet normal -0.453991 0 0.891006
    outer loop
      vertex 3.45492 0 4.75528
      vertex 2.06107 2 4.04508
      vertex 2.06107 0 4.04508
    endloop
  endfacet
  facet normal 0.987688 -0 0.156435
    outer loop
      vertex 9.75528 0 1.54508
      vertex 10 2 0
      vertex 9.75528 2 1.54508
    endloop
  endfacet
  facet normal 0.987688 0 0.156435
    outer loop
      vertex 10 2 0
      vertex 9.75528 0 1.54508
      vertex 10 0 0
    endloop
  endfacet
  facet normal 0.453991 0 0.891006
    outer loop
      vertex 6.54508 2 4.75528
      vertex 7.93893 0 4.04508
      vertex 7.93893 2 4.04508
    endloop
  endfacet
  facet normal 0.453991 0 0.891006
    outer loop
      vertex 7.93893 0 4.04508
      vertex 6.54508 2 4.75528
      vertex 6.54508 0 4.75528
    endloop
  endfacet
  facet normal 1.62249e-007 1 3.18431e-007
    outer loop
      vertex 10 2 0
      vertex 6.54508 2 4.75528
      vertex 7.93893 2 4.04508
    endloop
  endfacet
  facet normal -0.707107 0 0.707107
    outer loop
      vertex 0.954915 0 2.93893
      vertex 2.06107 2 4.04508
      vertex 0.954915 2 2.93893
    endloop
  endfacet
  facet normal -0.707107 0 0.707107
    outer loop
      vertex 2.06107 2 4.04508
      vertex 0.954915 0 2.93893
      vertex 2.06107 0 4.04508
    endloop
  endfacet
  facet normal -4.8068e-007 1 4.8068e-007
    outer loop
      vertex 2.06107 2 4.04508
      vertex 0 2 0
      vertex 0.954915 2 2.93893
    endloop
  endfacet
  facet normal -0.156435 0 0.987688
    outer loop
      vertex 3.45492 2 4.75528
      vertex 5 0 5
      vertex 5 2 5
    endloop
  endfacet
  facet normal -0.156435 0 0.987688
    outer loop
      vertex 5 0 5
      vertex 3.45492 2 4.75528
      vertex 3.45492 0 4.75528
    endloop
  endfacet
  facet normal -3.58946e-008 1 2.26629e-007
    outer loop
      vertex 5 2 5
      vertex 0 2 0
      vertex 3.45492 2 4.75528
    endloop
  endfacet
  facet normal 0.891006 -0 0.453991
    outer loop
      vertex 9.04508 0 2.93893
      vertex 9.75528 2 1.54508
      vertex 9.04508 2 2.93893
    endloop
  endfacet
  facet normal 0.891006 0 0.453991
    outer loop
      vertex 9.75528 2 1.54508
      vertex 9.04508 0 2.93893
      vertex 9.75528 0 1.54508
    endloop
  endfacet
  facet normal 1.75779e-006 1 8.95637e-007
    outer loop
      vertex 10 2 0
      vertex 9.04508 2 2.93893
      vertex 9.75528 2 1.54508
    endloop
  endfacet
  facet normal -0.891006 0 0.453991
    outer loop
      vertex 0.244718 0 1.54508
      vertex 0.954915 2 2.93893
      vertex 0.244718 2 1.54508
    endloop
  endfacet
  facet normal -0.891006 0 0.453991
    outer loop
      vertex 0.954915 2 2.93893
      vertex 0.244718 0 1.54508
      vertex 0.954915 0 2.93893
    endloop
  endfacet
  facet normal -1.75779e-006 1 8.95637e-007
    outer loop
      vertex 0.954915 2 2.93893
      vertex 0 2 0
      vertex 0.244718 2 1.54508
    endloop
  endfacet
  facet normal 0 0 -1
    outer loop
      vertex 10 0 0
      vertex 6.175 2 0
      vertex 10 2 0
    endloop
  endfacet
  facet normal 0 0 -1
    outer loop
      vertex 6.175 2 0
      vertex 3.825 2 0
      vertex 6.175 14 0
    endloop
  endfacet
  facet normal 0 0 -1
    outer loop
      vertex 10 0 0
      vertex 3.825 2 0
      vertex 6.175 2 0
    endloop
  endfacet
  facet normal 0 0 -1
    outer loop
      vertex 0 0 0
      vertex 3.825 2 0
      vertex 10 0 0
    endloop
  endfacet
  facet normal -0 0 -1
    outer loop
      vertex 3.825 2 0
      vertex 0 0 0
      vertex 0 2 0
    endloop
  endfacet
  facet normal -0 0 -1
    outer loop
      vertex 6.175 14 0
      vertex 3.825 2 0
      vertex 3.825 14 0
    endloop
  endfacet
  facet normal -0.156434 0 0.987688
    outer loop
      vertex 19.6369 14 1.11749
      vertex 20 2 1.175
      vertex 20 14 1.175
    endloop
  endfacet
  facet normal -0.156434 0 0.987688
    outer loop
      vertex 20 2 1.175
      vertex 19.6369 14 1.11749
      vertex 19.6369 2 1.11749
    endloop
  endfacet
  facet normal 0 -1 0
    outer loop
      vertex 18.4549 0 4.75528
      vertex 21.5451 0 4.75528
      vertex 20 0 5
    endloop
  endfacet
  facet normal 0 -1 0
    outer loop
      vertex 17.0611 0 4.04508
      vertex 21.5451 0 4.75528
      vertex 18.4549 0 4.75528
    endloop
  endfacet
  facet normal 0 -1 0
    outer loop
      vertex 17.0611 0 4.04508
      vertex 22.9389 0 4.04508
      vertex 21.5451 0 4.75528
    endloop
  endfacet
  facet normal 0 -1 0
    outer loop
      vertex 15.9549 0 2.93893
      vertex 22.9389 0 4.04508
      vertex 17.0611 0 4.04508
    endloop
  endfacet
  facet normal 0 -1 0
    outer loop
      vertex 15.9549 0 2.93893
      vertex 24.0451 0 2.93893
      vertex 22.9389 0 4.04508
    endloop
  endfacet
  facet normal 0 -1 0
    outer loop
      vertex 15.2447 0 1.54508
      vertex 24.0451 0 2.93893
      vertex 15.9549 0 2.93893
    endloop
  endfacet
  facet normal 0 -1 0
    outer loop
      vertex 15.2447 0 1.54508
      vertex 24.7553 0 1.54508
      vertex 24.0451 0 2.93893
    endloop
  endfacet
  facet normal 0 -1 0
    outer loop
      vertex 15 0 0
      vertex 24.7553 0 1.54508
      vertex 15.2447 0 1.54508
    endloop
  endfacet
  facet normal 0 -1 -0
    outer loop
      vertex 24.7553 0 1.54508
      vertex 15 0 0
      vertex 25 0 0
    endloop
  endfacet
  facet normal 0.891008 -0 0.453987
    outer loop
      vertex 20.9506 2 0.690647
      vertex 21.1175 14 0.363094
      vertex 20.9506 14 0.690647
    endloop
  endfacet
  facet normal 0.891008 0 0.453987
    outer loop
      vertex 21.1175 14 0.363094
      vertex 20.9506 2 0.690647
      vertex 21.1175 2 0.363094
    endloop
  endfacet
  facet normal -0.707105 0 0.707108
    outer loop
      vertex 19.0494 14 0.690647
      vertex 19.3094 2 0.950595
      vertex 19.3094 14 0.950595
    endloop
  endfacet
  facet normal -0.707105 0 0.707108
    outer loop
      vertex 19.3094 2 0.950595
      vertex 19.0494 14 0.690647
      vertex 19.0494 2 0.690647
    endloop
  endfacet
  facet normal -0.987688 0 0.156434
    outer loop
      vertex 18.825 2 0
      vertex 18.8825 14 0.363094
      vertex 18.825 14 0
    endloop
  endfacet
  facet normal -0.987688 0 0.156434
    outer loop
      vertex 18.8825 14 0.363094
      vertex 18.825 2 0
      vertex 18.8825 2 0.363094
    endloop
  endfacet
  facet normal 0 1 0
    outer loop
      vertex 20.3631 14 1.11749
      vertex 19.6369 14 1.11749
      vertex 20 14 1.175
    endloop
  endfacet
  facet normal 0 1 0
    outer loop
      vertex 20.6906 14 0.950595
      vertex 19.6369 14 1.11749
      vertex 20.3631 14 1.11749
    endloop
  endfacet
  facet normal 0 1 0
    outer loop
      vertex 20.6906 14 0.950595
      vertex 19.3094 14 0.950595
      vertex 19.6369 14 1.11749
    endloop
  endfacet
  facet normal 0 1 0
    outer loop
      vertex 20.9506 14 0.690647
      vertex 19.3094 14 0.950595
      vertex 20.6906 14 0.950595
    endloop
  endfacet
  facet normal 0 1 0
    outer loop
      vertex 20.9506 14 0.690647
      vertex 19.0494 14 0.690647
      vertex 19.3094 14 0.950595
    endloop
  endfacet
  facet normal 0 1 0
    outer loop
      vertex 21.1175 14 0.363094
      vertex 19.0494 14 0.690647
      vertex 20.9506 14 0.690647
    endloop
  endfacet
  facet normal 0 1 0
    outer loop
      vertex 21.1175 14 0.363094
      vertex 18.8825 14 0.363094
      vertex 19.0494 14 0.690647
    endloop
  endfacet
  facet normal 0 1 0
    outer loop
      vertex 21.175 14 0
      vertex 18.8825 14 0.363094
      vertex 21.1175 14 0.363094
    endloop
  endfacet
  facet normal 0 1 0
    outer loop
      vertex 18.8825 14 0.363094
      vertex 21.175 14 0
      vertex 18.825 14 0
    endloop
  endfacet
  facet normal 0.987688 0 0.156434
    outer loop
      vertex 21.1175 14 0.363094
      vertex 21.175 2 0
      vertex 21.175 14 0
    endloop
  endfacet
  facet normal 0.987688 0 0.156434
    outer loop
      vertex 21.175 2 0
      vertex 21.1175 14 0.363094
      vertex 21.1175 2 0.363094
    endloop
  endfacet
  facet normal 0.156434 0 0.987688
    outer loop
      vertex 20 14 1.175
      vertex 20.3631 2 1.11749
      vertex 20.3631 14 1.11749
    endloop
  endfacet
  facet normal 0.156434 0 0.987688
    outer loop
      vertex 20.3631 2 1.11749
      vertex 20 14 1.175
      vertex 20 2 1.175
    endloop
  endfacet
  facet normal 0.707105 0 0.707108
    outer loop
      vertex 20.6906 14 0.950595
      vertex 20.9506 2 0.690647
      vertex 20.9506 14 0.690647
    endloop
  endfacet
  facet normal 0.707105 0 0.707108
    outer loop
      vertex 20.9506 2 0.690647
      vertex 20.6906 14 0.950595
      vertex 20.6906 2 0.950595
    endloop
  endfacet
  facet normal -0.453989 0 0.891007
    outer loop
      vertex 19.3094 14 0.950595
      vertex 19.6369 2 1.11749
      vertex 19.6369 14 1.11749
    endloop
  endfacet
  facet normal -0.453989 0 0.891007
    outer loop
      vertex 19.6369 2 1.11749
      vertex 19.3094 14 0.950595
      vertex 19.3094 2 0.950595
    endloop
  endfacet
  facet normal -0.891008 0 0.453987
    outer loop
      vertex 18.8825 2 0.363094
      vertex 19.0494 14 0.690647
      vertex 18.8825 14 0.363094
    endloop
  endfacet
  facet normal -0.891008 0 0.453987
    outer loop
      vertex 19.0494 14 0.690647
      vertex 18.8825 2 0.363094
      vertex 19.0494 2 0.690647
    endloop
  endfacet
  facet normal 0.453989 0 0.891007
    outer loop
      vertex 20.3631 14 1.11749
      vertex 20.6906 2 0.950595
      vertex 20.6906 14 0.950595
    endloop
  endfacet
  facet normal 0.453989 0 0.891007
    outer loop
      vertex 20.6906 2 0.950595
      vertex 20.3631 14 1.11749
      vertex 20.3631 2 1.11749
    endloop
  endfacet
  facet normal 2.96171e-008 1 1.86995e-007
    outer loop
      vertex 20 2 5
      vertex 20.3631 2 1.11749
      vertex 20 2 1.175
    endloop
  endfacet
  facet normal 9.85637e-008 1 1.93443e-007
    outer loop
      vertex 20 2 5
      vertex 20.6906 2 0.950595
      vertex 20.3631 2 1.11749
    endloop
  endfacet
  facet normal -3.39933e-007 1 1.18655e-007
    outer loop
      vertex 20 2 5
      vertex 20.9506 2 0.690647
      vertex 20.6906 2 0.950595
    endloop
  endfacet
  facet normal 3.72793e-009 1 1.94463e-007
    outer loop
      vertex 25 2 0
      vertex 20.9506 2 0.690647
      vertex 20 2 5
    endloop
  endfacet
  facet normal -3.22405e-008 1 -1.64272e-008
    outer loop
      vertex 20.9506 2 0.690647
      vertex 25 2 0
      vertex 21.1175 2 0.363094
    endloop
  endfacet
  facet normal 0 1 3.28315e-007
    outer loop
      vertex 21.1175 2 0.363094
      vertex 25 2 0
      vertex 21.175 2 0
    endloop
  endfacet
  facet normal -2.96171e-008 1 1.86995e-007
    outer loop
      vertex 19.6369 2 1.11749
      vertex 20 2 5
      vertex 20 2 1.175
    endloop
  endfacet
  facet normal -9.85637e-008 1 1.93443e-007
    outer loop
      vertex 19.3094 2 0.950595
      vertex 20 2 5
      vertex 19.6369 2 1.11749
    endloop
  endfacet
  facet normal 3.39933e-007 1 1.18655e-007
    outer loop
      vertex 19.0494 2 0.690647
      vertex 20 2 5
      vertex 19.3094 2 0.950595
    endloop
  endfacet
  facet normal 3.22405e-008 1 -1.64272e-008
    outer loop
      vertex 15 2 0
      vertex 19.0494 2 0.690647
      vertex 18.8825 2 0.363094
    endloop
  endfacet
  facet normal -3.72793e-009 1 1.94463e-007
    outer loop
      vertex 19.0494 2 0.690647
      vertex 15 2 0
      vertex 20 2 5
    endloop
  endfacet
  facet normal -0 1 3.28315e-007
    outer loop
      vertex 15 2 0
      vertex 18.8825 2 0.363094
      vertex 18.825 2 0
    endloop
  endfacet
  facet normal 3.58946e-008 1 2.26629e-007
    outer loop
      vertex 25 2 0
      vertex 20 2 5
      vertex 21.5451 2 4.75528
    endloop
  endfacet
  facet normal 4.8068e-007 1 4.8068e-007
    outer loop
      vertex 25 2 0
      vertex 22.9389 2 4.04508
      vertex 24.0451 2 2.93893
    endloop
  endfacet
  facet normal -0.987688 0 0.156435
    outer loop
      vertex 15 0 0
      vertex 15.2447 2 1.54508
      vertex 15 2 0
    endloop
  endfacet
  facet normal -0.987688 0 0.156435
    outer loop
      vertex 15.2447 2 1.54508
      vertex 15 0 0
      vertex 15.2447 0 1.54508
    endloop
  endfacet
  facet normal 0.707107 -0 0.707107
    outer loop
      vertex 22.9389 0 4.04508
      vertex 24.0451 2 2.93893
      vertex 22.9389 2 4.04508
    endloop
  endfacet
  facet normal 0.707107 0 0.707107
    outer loop
      vertex 24.0451 2 2.93893
      vertex 22.9389 0 4.04508
      vertex 24.0451 0 2.93893
    endloop
  endfacet
  facet normal 0.156434 0 0.987688
    outer loop
      vertex 20 2 5
      vertex 21.5451 0 4.75528
      vertex 21.5451 2 4.75528
    endloop
  endfacet
  facet normal 0.156434 0 0.987688
    outer loop
      vertex 21.5451 0 4.75528
      vertex 20 2 5
      vertex 20 0 5
    endloop
  endfacet
  facet normal -1.62249e-007 1 3.18431e-007
    outer loop
      vertex 18.4549 2 4.75528
      vertex 15 2 0
      vertex 17.0611 2 4.04508
    endloop
  endfacet
  facet normal -0.453991 0 0.891006
    outer loop
      vertex 17.0611 2 4.04508
      vertex 18.4549 0 4.75528
      vertex 18.4549 2 4.75528
    endloop
  endfacet
  facet normal -0.453991 0 0.891006
    outer loop
      vertex 18.4549 0 4.75528
      vertex 17.0611 2 4.04508
      vertex 17.0611 0 4.04508
    endloop
  endfacet
  facet normal 0.987688 -0 0.156434
    outer loop
      vertex 24.7553 0 1.54508
      vertex 25 2 0
      vertex 24.7553 2 1.54508
    endloop
  endfacet
  facet normal 0.987688 0 0.156434
    outer loop
      vertex 25 2 0
      vertex 24.7553 0 1.54508
      vertex 25 0 0
    endloop
  endfacet
  facet normal 0.453991 0 0.891006
    outer loop
      vertex 21.5451 2 4.75528
      vertex 22.9389 0 4.04508
      vertex 22.9389 2 4.04508
    endloop
  endfacet
  facet normal 0.453991 0 0.891006
    outer loop
      vertex 22.9389 0 4.04508
      vertex 21.5451 2 4.75528
      vertex 21.5451 0 4.75528
    endloop
  endfacet
  facet normal 1.62249e-007 1 3.18431e-007
    outer loop
      vertex 25 2 0
      vertex 21.5451 2 4.75528
      vertex 22.9389 2 4.04508
    endloop
  endfacet
  facet normal -0.707107 0 0.707106
    outer loop
      vertex 15.9549 0 2.93893
      vertex 17.0611 2 4.04508
      vertex 15.9549 2 2.93893
    endloop
  endfacet
  facet normal -0.707107 0 0.707106
    outer loop
      vertex 17.0611 2 4.04508
      vertex 15.9549 0 2.93893
      vertex 17.0611 0 4.04508
    endloop
  endfacet
  facet normal -4.80681e-007 1 4.8068e-007
    outer loop
      vertex 17.0611 2 4.04508
      vertex 15 2 0
      vertex 15.9549 2 2.93893
    endloop
  endfacet
  facet normal -0.156434 0 0.987688
    outer loop
      vertex 18.4549 2 4.75528
      vertex 20 0 5
      vertex 20 2 5
    endloop
  endfacet
  facet normal -0.156434 0 0.987688
    outer loop
      vertex 20 0 5
      vertex 18.4549 2 4.75528
      vertex 18.4549 0 4.75528
    endloop
  endfacet
  facet normal -3.58946e-008 1 2.26629e-007
    outer loop
      vertex 20 2 5
      vertex 15 2 0
      vertex 18.4549 2 4.75528
    endloop
  endfacet
  facet normal 0.891006 -0 0.453991
    outer loop
      vertex 24.0451 0 2.93893
      vertex 24.7553 2 1.54508
      vertex 24.0451 2 2.93893
    endloop
  endfacet
  facet normal 0.891006 0 0.453991
    outer loop
      vertex 24.7553 2 1.54508
      vertex 24.0451 0 2.93893
      vertex 24.7553 0 1.54508
    endloop
  endfacet
  facet normal 1.75778e-006 1 8.95636e-007
    outer loop
      vertex 25 2 0
      vertex 24.0451 2 2.93893
      vertex 24.7553 2 1.54508
    endloop
  endfacet
  facet normal -0.891006 0 0.453991
    outer loop
      vertex 15.2447 0 1.54508
      vertex 15.9549 2 2.93893
      vertex 15.2447 2 1.54508
    endloop
  endfacet
  facet normal -0.891006 0 0.453991
    outer loop
      vertex 15.9549 2 2.93893
      vertex 15.2447 0 1.54508
      vertex 15.9549 0 2.93893
    endloop
  endfacet
  facet normal -1.75779e-006 1 8.95637e-007
    outer loop
      vertex 15.9549 2 2.93893
      vertex 15 2 0
      vertex 15.2447 2 1.54508
    endloop
  endfacet
  facet normal 0 0 -1
    outer loop
      vertex 25 0 0
      vertex 21.175 2 0
      vertex 25 2 0
    endloop
  endfacet
  facet normal 0 0 -1
    outer loop
      vertex 21.175 2 0
      vertex 18.825 2 0
      vertex 21.175 14 0
    endloop
  endfacet
  facet normal 0 0 -1
    outer loop
      vertex 25 0 0
      vertex 18.825 2 0
      vertex 21.175 2 0
    endloop
  endfacet
  facet normal 0 0 -1
    outer loop
      vertex 15 0 0
      vertex 18.825 2 0
      vertex 25 0 0
    endloop
  endfacet
  facet normal -0 0 -1
    outer loop
      vertex 18.825 2 0
      vertex 15 0 0
      vertex 15 2 0
    endloop
  endfacet
  facet normal -0 0 -1
    outer loop
      vertex 21.175 14 0
      vertex 18.825 2 0
      vertex 18.825 14 0
    endloop
  endfacet
endsolid OpenSCAD_Model
